<svg xmlns="http://www.w3.org/2000/svg" width="1000" height="1000" viewBox="0 0 1000 1000"><defs></defs><rect x="0.0" y="0.0" width="1000.0" height="1000.0" rx="0" fill="#0B0A0D" /><rect x="40.0" y="40.0" width="50.0" height="50.0" rx="6" fill="#FFC7EC" /><rect x="98.0" y="40.0" width="50.0" height="50.0" rx="6" fill="#1C1822" /><rect x="156.0" y="40.0" width="50.0" height="50.0" rx="6" fill="#1C1822" /><rect x="214.0" y="40.0" width="50.0" height="50.0" rx="6" fill="#1C1822" /><rect x="272.0" y="40.0" width="50.0" height="50.0" rx="6" fill="#FFC7EC" /><rect x="330.0" y="40.0" width="50.0" height="50.0" rx="6" fill="#17141B" /><rect x="388.0" y="40.0" width="50.0" height="50.0" rx="6" fill="#17141B" /><rect x="446.0" y="40.0" width="50.0" height="50.0" rx="6" fill="#17141B" /><rect x="504.0" y="40.0" width="50.0" height="50.0" rx="6" fill="#FFC7EC" /><rect x="562.0" y="40.0" width="50.0" height="50.0" rx="6" fill="#1C1822" /><rect x="620.0" y="40.0" width="50.0" height="50.0" rx="6" fill="#1C1822" /><rect x="678.0" y="40.0" width="50.0" height="50.0" rx="6" fill="#1C1822" /><rect x="736.0" y="40.0" width="50.0" height="50.0" rx="6" fill="#FFC7EC" /><rect x="794.0" y="40.0" width="50.0" height="50.0" rx="6" fill="#17141B" /><rect x="852.0" y="40.0" width="50.0" height="50.0" rx="6" fill="#17141B" /><rect x="910.0" y="40.0" width="50.0" height="50.0" rx="6" fill="#17141B" /><rect x="40.0" y="98.0" width="50.0" height="50.0" rx="6" fill="#1C1822" /><rect x="98.0" y="98.0" width="50.0" height="50.0" rx="6" fill="#1C1822" /><rect x="156.0" y="98.0" width="50.0" height="50.0" rx="6" fill="#1C1822" /><rect x="214.0" y="98.0" width="50.0" height="50.0" rx="6" fill="#1C1822" /><rect x="272.0" y="98.0" width="50.0" height="50.0" rx="6" fill="#FF93DA" /><rect x="330.0" y="98.0" width="50.0" height="50.0" rx="6" fill="#17141B" /><rect x="388.0" y="98.0" width="50.0" height="50.0" rx="6" fill="#17141B" /><rect x="446.0" y="98.0" width="50.0" height="50.0" rx="6" fill="#17141B" /><rect x="504.0" y="98.0" width="50.0" height="50.0" rx="6" fill="#1C1822" /><rect x="562.0" y="98.0" width="50.0" height="50.0" rx="6" fill="#1C1822" /><rect x="620.0" y="98.0" width="50.0" height="50.0" rx="6" fill="#1C1822" /><rect x="678.0" y="98.0" width="50.0" height="50.0" rx="6" fill="#1C1822" /><rect x="736.0" y="98.0" width="50.0" height="50.0" rx="6" fill="#FF93DA" /><rect x="794.0" y="98.0" width="50.0" height="50.0" rx="6" fill="#17141B" /><rect x="852.0" y="98.0" width="50.0" height="50.0" rx="6" fill="#17141B" /><rect x="910.0" y="98.0" width="50.0" height="50.0" rx="6" fill="#17141B" /><rect x="40.0" y="156.0" width="50.0" height="50.0" rx="6" fill="#1C1822" /><rect x="98.0" y="156.0" width="50.0" height="50.0" rx="6" fill="#FF93DA" /><rect x="156.0" y="156.0" width="50.0" height="50.0" rx="6" fill="#1C1822" /><rect x="214.0" y="156.0" width="50.0" height="50.0" rx="6" fill="#FF93DA" /><rect x="272.0" y="156.0" width="50.0" height="50.0" rx="6" fill="#17141B" /><rect x="330.0" y="156.0" width="50.0" height="50.0" rx="6" fill="#FF93DA" /><rect x="388.0" y="156.0" width="50.0" height="50.0" rx="6" fill="#17141B" /><rect x="446.0" y="156.0" width="50.0" height="50.0" rx="6" fill="#FF93DA" /><rect x="504.0" y="156.0" width="50.0" height="50.0" rx="6" fill="#1C1822" /><rect x="562.0" y="156.0" width="50.0" height="50.0" rx="6" fill="#FF93DA" /><rect x="620.0" y="156.0" width="50.0" height="50.0" rx="6" fill="#1C1822" /><rect x="678.0" y="156.0" width="50.0" height="50.0" rx="6" fill="#FF93DA" /><rect x="736.0" y="156.0" width="50.0" height="50.0" rx="6" fill="#17141B" /><rect x="794.0" y="156.0" width="50.0" height="50.0" rx="6" fill="#FF93DA" /><rect x="852.0" y="156.0" width="50.0" height="50.0" rx="6" fill="#17141B" /><rect x="910.0" y="156.0" width="50.0" height="50.0" rx="6" fill="#FF93DA" /><rect x="40.0" y="214.0" width="50.0" height="50.0" rx="6" fill="#1C1822" /><rect x="98.0" y="214.0" width="50.0" height="50.0" rx="6" fill="#1C1822" /><rect x="156.0" y="214.0" width="50.0" height="50.0" rx="6" fill="#1C1822" /><rect x="214.0" y="214.0" width="50.0" height="50.0" rx="6" fill="#FFC7EC" /><rect x="272.0" y="214.0" width="50.0" height="50.0" rx="6" fill="#17141B" /><rect x="330.0" y="214.0" width="50.0" height="50.0" rx="6" fill="#17141B" /><rect x="388.0" y="214.0" width="50.0" height="50.0" rx="6" fill="#FFC7EC" /><rect x="446.0" y="214.0" width="50.0" height="50.0" rx="6" fill="#17141B" /><rect x="504.0" y="214.0" width="50.0" height="50.0" rx="6" fill="#1C1822" /><rect x="562.0" y="214.0" width="50.0" height="50.0" rx="6" fill="#1C1822" /><rect x="620.0" y="214.0" width="50.0" height="50.0" rx="6" fill="#FFC7EC" /><rect x="678.0" y="214.0" width="50.0" height="50.0" rx="6" fill="#1C1822" /><rect x="736.0" y="214.0" width="50.0" height="50.0" rx="6" fill="#17141B" /><rect x="794.0" y="214.0" width="50.0" height="50.0" rx="6" fill="#17141B" /><rect x="852.0" y="214.0" width="50.0" height="50.0" rx="6" fill="#FFC7EC" /><rect x="910.0" y="214.0" width="50.0" height="50.0" rx="6" fill="#17141B" /><rect x="40.0" y="272.0" width="50.0" height="50.0" rx="6" fill="#FF93DA" /><rect x="98.0" y="272.0" width="50.0" height="50.0" rx="6" fill="#1C1822" /><rect x="156.0" y="272.0" width="50.0" height="50.0" rx="6" fill="#1C1822" /><rect x="214.0" y="272.0" width="50.0" height="50.0" rx="6" fill="#1C1822" /><rect x="272.0" y="272.0" width="50.0" height="50.0" rx="6" fill="#17141B" /><rect x="330.0" y="272.0" width="50.0" height="50.0" rx="6" fill="#17141B" /><rect x="388.0" y="272.0" width="50.0" height="50.0" rx="6" fill="#17141B" /><rect x="446.0" y="272.0" width="50.0" height="50.0" rx="6" fill="#FF93DA" /><rect x="504.0" y="272.0" width="50.0" height="50.0" rx="6" fill="#1C1822" /><rect x="562.0" y="272.0" width="50.0" height="50.0" rx="6" fill="#1C1822" /><rect x="620.0" y="272.0" width="50.0" height="50.0" rx="6" fill="#1C1822" /><rect x="678.0" y="272.0" width="50.0" height="50.0" rx="6" fill="#FF93DA" /><rect x="736.0" y="272.0" width="50.0" height="50.0" rx="6" fill="#17141B" /><rect x="794.0" y="272.0" width="50.0" height="50.0" rx="6" fill="#17141B" /><rect x="852.0" y="272.0" width="50.0" height="50.0" rx="6" fill="#17141B" /><rect x="910.0" y="272.0" width="50.0" height="50.0" rx="6" fill="#17141B" /><rect x="40.0" y="330.0" width="50.0" height="50.0" rx="6" fill="#FF93DA" /><rect x="98.0" y="330.0" width="50.0" height="50.0" rx="6" fill="#1C1822" /><rect x="156.0" y="330.0" width="50.0" height="50.0" rx="6" fill="#1C1822" /><rect x="214.0" y="330.0" width="50.0" height="50.0" rx="6" fill="#FF93DA" /><rect x="272.0" y="330.0" width="50.0" height="50.0" rx="6" fill="#17141B" /><rect x="330.0" y="330.0" width="50.0" height="50.0" rx="6" fill="#17141B" /><rect x="388.0" y="330.0" width="50.0" height="50.0" rx="6" fill="#FF93DA" /><rect x="446.0" y="330.0" width="50.0" height="50.0" rx="6" fill="#17141B" /><rect x="504.0" y="330.0" width="50.0" height="50.0" rx="6" fill="#1C1822" /><rect x="562.0" y="330.0" width="50.0" height="50.0" rx="6" fill="#FF93DA" /><rect x="620.0" y="330.0" width="50.0" height="50.0" rx="6" fill="#1C1822" /><rect x="678.0" y="330.0" width="50.0" height="50.0" rx="6" fill="#1C1822" /><rect x="736.0" y="330.0" width="50.0" height="50.0" rx="6" fill="#FF93DA" /><rect x="794.0" y="330.0" width="50.0" height="50.0" rx="6" fill="#17141B" /><rect x="852.0" y="330.0" width="50.0" height="50.0" rx="6" fill="#17141B" /><rect x="910.0" y="330.0" width="50.0" height="50.0" rx="6" fill="#FF93DA" /><rect x="40.0" y="388.0" width="50.0" height="50.0" rx="6" fill="#1C1822" /><rect x="98.0" y="388.0" width="50.0" height="50.0" rx="6" fill="#1C1822" /><rect x="156.0" y="388.0" width="50.0" height="50.0" rx="6" fill="#1C1822" /><rect x="214.0" y="388.0" width="50.0" height="50.0" rx="6" fill="#FFC7EC" /><rect x="272.0" y="388.0" width="50.0" height="50.0" rx="6" fill="#17141B" /><rect x="330.0" y="388.0" width="50.0" height="50.0" rx="6" fill="#17141B" /><rect x="388.0" y="388.0" width="50.0" height="50.0" rx="6" fill="#17141B" /><rect x="446.0" y="388.0" width="50.0" height="50.0" rx="6" fill="#FFC7EC" /><rect x="504.0" y="388.0" width="50.0" height="50.0" rx="6" fill="#1C1822" /><rect x="562.0" y="388.0" width="50.0" height="50.0" rx="6" fill="#1C1822" /><rect x="620.0" y="388.0" width="50.0" height="50.0" rx="6" fill="#1C1822" /><rect x="678.0" y="388.0" width="50.0" height="50.0" rx="6" fill="#FFC7EC" /><rect x="736.0" y="388.0" width="50.0" height="50.0" rx="6" fill="#17141B" /><rect x="794.0" y="388.0" width="50.0" height="50.0" rx="6" fill="#17141B" /><rect x="852.0" y="388.0" width="50.0" height="50.0" rx="6" fill="#17141B" /><rect x="910.0" y="388.0" width="50.0" height="50.0" rx="6" fill="#FFC7EC" /><rect x="40.0" y="446.0" width="50.0" height="50.0" rx="6" fill="#1C1822" /><rect x="98.0" y="446.0" width="50.0" height="50.0" rx="6" fill="#1C1822" /><rect x="156.0" y="446.0" width="50.0" height="50.0" rx="6" fill="#1C1822" /><rect x="214.0" y="446.0" width="50.0" height="50.0" rx="6" fill="#FF93DA" /><rect x="272.0" y="446.0" width="50.0" height="50.0" rx="6" fill="#17141B" /><rect x="330.0" y="446.0" width="50.0" height="50.0" rx="6" fill="#17141B" /><rect x="388.0" y="446.0" width="50.0" height="50.0" rx="6" fill="#17141B" /><rect x="446.0" y="446.0" width="50.0" height="50.0" rx="6" fill="#17141B" /><rect x="504.0" y="446.0" width="50.0" height="50.0" rx="6" fill="#1C1822" /><rect x="562.0" y="446.0" width="50.0" height="50.0" rx="6" fill="#1C1822" /><rect x="620.0" y="446.0" width="50.0" height="50.0" rx="6" fill="#1C1822" /><rect x="678.0" y="446.0" width="50.0" height="50.0" rx="6" fill="#FF93DA" /><rect x="736.0" y="446.0" width="50.0" height="50.0" rx="6" fill="#17141B" /><rect x="794.0" y="446.0" width="50.0" height="50.0" rx="6" fill="#17141B" /><rect x="852.0" y="446.0" width="50.0" height="50.0" rx="6" fill="#17141B" /><rect x="910.0" y="446.0" width="50.0" height="50.0" rx="6" fill="#17141B" /><rect x="40.0" y="504.0" width="50.0" height="50.0" rx="6" fill="#FF93DA" /><rect x="98.0" y="504.0" width="50.0" height="50.0" rx="6" fill="#1C1822" /><rect x="156.0" y="504.0" width="50.0" height="50.0" rx="6" fill="#FF93DA" /><rect x="214.0" y="504.0" width="50.0" height="50.0" rx="6" fill="#1C1822" /><rect x="272.0" y="504.0" width="50.0" height="50.0" rx="6" fill="#FF93DA" /><rect x="330.0" y="504.0" width="50.0" height="50.0" rx="6" fill="#17141B" /><rect x="388.0" y="504.0" width="50.0" height="50.0" rx="6" fill="#FF93DA" /><rect x="446.0" y="504.0" width="50.0" height="50.0" rx="6" fill="#17141B" /><rect x="504.0" y="504.0" width="50.0" height="50.0" rx="6" fill="#FF93DA" /><rect x="562.0" y="504.0" width="50.0" height="50.0" rx="6" fill="#1C1822" /><rect x="620.0" y="504.0" width="50.0" height="50.0" rx="6" fill="#FF93DA" /><rect x="678.0" y="504.0" width="50.0" height="50.0" rx="6" fill="#1C1822" /><rect x="736.0" y="504.0" width="50.0" height="50.0" rx="6" fill="#FF93DA" /><rect x="794.0" y="504.0" width="50.0" height="50.0" rx="6" fill="#17141B" /><rect x="852.0" y="504.0" width="50.0" height="50.0" rx="6" fill="#FF93DA" /><rect x="910.0" y="504.0" width="50.0" height="50.0" rx="6" fill="#17141B" /><rect x="40.0" y="562.0" width="50.0" height="50.0" rx="6" fill="#1C1822" /><rect x="98.0" y="562.0" width="50.0" height="50.0" rx="6" fill="#1C1822" /><rect x="156.0" y="562.0" width="50.0" height="50.0" rx="6" fill="#FFC7EC" /><rect x="214.0" y="562.0" width="50.0" height="50.0" rx="6" fill="#1C1822" /><rect x="272.0" y="562.0" width="50.0" height="50.0" rx="6" fill="#17141B" /><rect x="330.0" y="562.0" width="50.0" height="50.0" rx="6" fill="#FFC7EC" /><rect x="388.0" y="562.0" width="50.0" height="50.0" rx="6" fill="#17141B" /><rect x="446.0" y="562.0" width="50.0" height="50.0" rx="6" fill="#17141B" /><rect x="504.0" y="562.0" width="50.0" height="50.0" rx="6" fill="#1C1822" /><rect x="562.0" y="562.0" width="50.0" height="50.0" rx="6" fill="#FFC7EC" /><rect x="620.0" y="562.0" width="50.0" height="50.0" rx="6" fill="#1C1822" /><rect x="678.0" y="562.0" width="50.0" height="50.0" rx="6" fill="#1C1822" /><rect x="736.0" y="562.0" width="50.0" height="50.0" rx="6" fill="#17141B" /><rect x="794.0" y="562.0" width="50.0" height="50.0" rx="6" fill="#FFC7EC" /><rect x="852.0" y="562.0" width="50.0" height="50.0" rx="6" fill="#17141B" /><rect x="910.0" y="562.0" width="50.0" height="50.0" rx="6" fill="#17141B" /><rect x="40.0" y="620.0" width="50.0" height="50.0" rx="6" fill="#1C1822" /><rect x="98.0" y="620.0" width="50.0" height="50.0" rx="6" fill="#1C1822" /><rect x="156.0" y="620.0" width="50.0" height="50.0" rx="6" fill="#1C1822" /><rect x="214.0" y="620.0" width="50.0" height="50.0" rx="6" fill="#1C1822" /><rect x="272.0" y="620.0" width="50.0" height="50.0" rx="6" fill="#17141B" /><rect x="330.0" y="620.0" width="50.0" height="50.0" rx="6" fill="#17141B" /><rect x="388.0" y="620.0" width="50.0" height="50.0" rx="6" fill="#FF93DA" /><rect x="446.0" y="620.0" width="50.0" height="50.0" rx="6" fill="#17141B" /><rect x="504.0" y="620.0" width="50.0" height="50.0" rx="6" fill="#1C1822" /><rect x="562.0" y="620.0" width="50.0" height="50.0" rx="6" fill="#1C1822" /><rect x="620.0" y="620.0" width="50.0" height="50.0" rx="6" fill="#FF93DA" /><rect x="678.0" y="620.0" width="50.0" height="50.0" rx="6" fill="#1C1822" /><rect x="736.0" y="620.0" width="50.0" height="50.0" rx="6" fill="#17141B" /><rect x="794.0" y="620.0" width="50.0" height="50.0" rx="6" fill="#17141B" /><rect x="852.0" y="620.0" width="50.0" height="50.0" rx="6" fill="#17141B" /><rect x="910.0" y="620.0" width="50.0" height="50.0" rx="6" fill="#FF93DA" /><rect x="40.0" y="678.0" width="50.0" height="50.0" rx="6" fill="#1C1822" /><rect x="98.0" y="678.0" width="50.0" height="50.0" rx="6" fill="#1C1822" /><rect x="156.0" y="678.0" width="50.0" height="50.0" rx="6" fill="#FF93DA" /><rect x="214.0" y="678.0" width="50.0" height="50.0" rx="6" fill="#1C1822" /><rect x="272.0" y="678.0" width="50.0" height="50.0" rx="6" fill="#17141B" /><rect x="330.0" y="678.0" width="50.0" height="50.0" rx="6" fill="#FF93DA" /><rect x="388.0" y="678.0" width="50.0" height="50.0" rx="6" fill="#17141B" /><rect x="446.0" y="678.0" width="50.0" height="50.0" rx="6" fill="#17141B" /><rect x="504.0" y="678.0" width="50.0" height="50.0" rx="6" fill="#FF93DA" /><rect x="562.0" y="678.0" width="50.0" height="50.0" rx="6" fill="#1C1822" /><rect x="620.0" y="678.0" width="50.0" height="50.0" rx="6" fill="#1C1822" /><rect x="678.0" y="678.0" width="50.0" height="50.0" rx="6" fill="#FF93DA" /><rect x="736.0" y="678.0" width="50.0" height="50.0" rx="6" fill="#17141B" /><rect x="794.0" y="678.0" width="50.0" height="50.0" rx="6" fill="#17141B" /><rect x="852.0" y="678.0" width="50.0" height="50.0" rx="6" fill="#FF93DA" /><rect x="910.0" y="678.0" width="50.0" height="50.0" rx="6" fill="#FF93DA" /><rect x="40.0" y="736.0" width="50.0" height="50.0" rx="6" fill="#1C1822" /><rect x="98.0" y="736.0" width="50.0" height="50.0" rx="6" fill="#1C1822" /><rect x="156.0" y="736.0" width="50.0" height="50.0" rx="6" fill="#FFC7EC" /><rect x="214.0" y="736.0" width="50.0" height="50.0" rx="6" fill="#1C1822" /><rect x="272.0" y="736.0" width="50.0" height="50.0" rx="6" fill="#17141B" /><rect x="330.0" y="736.0" width="50.0" height="50.0" rx="6" fill="#17141B" /><rect x="388.0" y="736.0" width="50.0" height="50.0" rx="6" fill="#FFC7EC" /><rect x="446.0" y="736.0" width="50.0" height="50.0" rx="6" fill="#17141B" /><rect x="504.0" y="736.0" width="50.0" height="50.0" rx="6" fill="#1C1822" /><rect x="562.0" y="736.0" width="50.0" height="50.0" rx="6" fill="#1C1822" /><rect x="620.0" y="736.0" width="50.0" height="50.0" rx="6" fill="#FFC7EC" /><rect x="678.0" y="736.0" width="50.0" height="50.0" rx="6" fill="#1C1822" /><rect x="736.0" y="736.0" width="50.0" height="50.0" rx="6" fill="#17141B" /><rect x="794.0" y="736.0" width="50.0" height="50.0" rx="6" fill="#17141B" /><rect x="852.0" y="736.0" width="50.0" height="50.0" rx="6" fill="#FFC7EC" /><rect x="910.0" y="736.0" width="50.0" height="50.0" rx="6" fill="#17141B" /><rect x="40.0" y="794.0" width="50.0" height="50.0" rx="6" fill="#1C1822" /><rect x="98.0" y="794.0" width="50.0" height="50.0" rx="6" fill="#1C1822" /><rect x="156.0" y="794.0" width="50.0" height="50.0" rx="6" fill="#FF93DA" /><rect x="214.0" y="794.0" width="50.0" height="50.0" rx="6" fill="#1C1822" /><rect x="272.0" y="794.0" width="50.0" height="50.0" rx="6" fill="#17141B" /><rect x="330.0" y="794.0" width="50.0" height="50.0" rx="6" fill="#17141B" /><rect x="388.0" y="794.0" width="50.0" height="50.0" rx="6" fill="#17141B" /><rect x="446.0" y="794.0" width="50.0" height="50.0" rx="6" fill="#17141B" /><rect x="504.0" y="794.0" width="50.0" height="50.0" rx="6" fill="#1C1822" /><rect x="562.0" y="794.0" width="50.0" height="50.0" rx="6" fill="#1C1822" /><rect x="620.0" y="794.0" width="50.0" height="50.0" rx="6" fill="#FF93DA" /><rect x="678.0" y="794.0" width="50.0" height="50.0" rx="6" fill="#1C1822" /><rect x="736.0" y="794.0" width="50.0" height="50.0" rx="6" fill="#17141B" /><rect x="794.0" y="794.0" width="50.0" height="50.0" rx="6" fill="#17141B" /><rect x="852.0" y="794.0" width="50.0" height="50.0" rx="6" fill="#17141B" /><rect x="910.0" y="794.0" width="50.0" height="50.0" rx="6" fill="#17141B" /><rect x="40.0" y="852.0" width="50.0" height="50.0" rx="6" fill="#1C1822" /><rect x="98.0" y="852.0" width="50.0" height="50.0" rx="6" fill="#FF93DA" /><rect x="156.0" y="852.0" width="50.0" height="50.0" rx="6" fill="#1C1822" /><rect x="214.0" y="852.0" width="50.0" height="50.0" rx="6" fill="#FF93DA" /><rect x="272.0" y="852.0" width="50.0" height="50.0" rx="6" fill="#17141B" /><rect x="330.0" y="852.0" width="50.0" height="50.0" rx="6" fill="#FF93DA" /><rect x="388.0" y="852.0" width="50.0" height="50.0" rx="6" fill="#17141B" /><rect x="446.0" y="852.0" width="50.0" height="50.0" rx="6" fill="#FF93DA" /><rect x="504.0" y="852.0" width="50.0" height="50.0" rx="6" fill="#1C1822" /><rect x="562.0" y="852.0" width="50.0" height="50.0" rx="6" fill="#FF93DA" /><rect x="620.0" y="852.0" width="50.0" height="50.0" rx="6" fill="#1C1822" /><rect x="678.0" y="852.0" width="50.0" height="50.0" rx="6" fill="#FF93DA" /><rect x="736.0" y="852.0" width="50.0" height="50.0" rx="6" fill="#17141B" /><rect x="794.0" y="852.0" width="50.0" height="50.0" rx="6" fill="#FF93DA" /><rect x="852.0" y="852.0" width="50.0" height="50.0" rx="6" fill="#17141B" /><rect x="910.0" y="852.0" width="50.0" height="50.0" rx="6" fill="#FF93DA" /><rect x="40.0" y="910.0" width="50.0" height="50.0" rx="6" fill="#1C1822" /><rect x="98.0" y="910.0" width="50.0" height="50.0" rx="6" fill="#FFC7EC" /><rect x="156.0" y="910.0" width="50.0" height="50.0" rx="6" fill="#1C1822" /><rect x="214.0" y="910.0" width="50.0" height="50.0" rx="6" fill="#1C1822" /><rect x="272.0" y="910.0" width="50.0" height="50.0" rx="6" fill="#FFC7EC" /><rect x="330.0" y="910.0" width="50.0" height="50.0" rx="6" fill="#17141B" /><rect x="388.0" y="910.0" width="50.0" height="50.0" rx="6" fill="#17141B" /><rect x="446.0" y="910.0" width="50.0" height="50.0" rx="6" fill="#17141B" /><rect x="504.0" y="910.0" width="50.0" height="50.0" rx="6" fill="#FFC7EC" /><rect x="562.0" y="910.0" width="50.0" height="50.0" rx="6" fill="#1C1822" /><rect x="620.0" y="910.0" width="50.0" height="50.0" rx="6" fill="#1C1822" /><rect x="678.0" y="910.0" width="50.0" height="50.0" rx="6" fill="#1C1822" /><rect x="736.0" y="910.0" width="50.0" height="50.0" rx="6" fill="#FFC7EC" /><rect x="794.0" y="910.0" width="50.0" height="50.0" rx="6" fill="#17141B" /><rect x="852.0" y="910.0" width="50.0" height="50.0" rx="6" fill="#17141B" /><rect x="910.0" y="910.0" width="50.0" height="50.0" rx="6" fill="#17141B" /><rect x="556.0" y="26.0" width="4.0" height="948.0" rx="2" fill="#FFC7EC" opacity=".9"/><circle cx="500.0" cy="500.0" r="158.0" fill="#0B0A0D" /><circle cx="500.0" cy="500.0" r="172.0" fill="none" stroke="#FFC7EC" stroke-width="2.5" opacity=".85"/><g transform="translate(500 500) scale(0.8)"><g transform="translate(0 -4)"><rect x="-106" y="-58" width="212" height="178" rx="12" fill="#0B0A0D" stroke="#FFC7EC" stroke-width="13" stroke-linejoin="round"/><rect x="-124" y="-112" width="248" height="56" rx="12" fill="#0B0A0D" stroke="#FFC7EC" stroke-width="13" stroke-linejoin="round"/><rect x="-19" y="-106" width="18" height="11" rx="3" fill="#FFC7EC"/><rect x="1" y="-89" width="18" height="11" rx="3" fill="#FFC7EC"/><rect x="-19" y="-72" width="18" height="11" rx="3" fill="#FFC7EC"/><rect x="1" y="-55" width="18" height="11" rx="3" fill="#FFC7EC"/><rect x="-19" y="-38" width="18" height="11" rx="3" fill="#FFC7EC"/><rect x="1" y="-21" width="18" height="11" rx="3" fill="#FFC7EC"/><rect x="-17" y="-18" width="34" height="42" rx="8" fill="#FFC7EC"/><rect x="-7" y="2" width="14" height="13" rx="3.5" fill="#0B0A0D"/><path d="M-66 71.0 L-66 85.0" stroke="#FFC7EC" stroke-width="11" stroke-linecap="round"/><path d="M-44 63.0 L-44 93.0" stroke="#FFC7EC" stroke-width="11" stroke-linecap="round"/><path d="M-22 55.0 L-22 101.0" stroke="#FFC7EC" stroke-width="11" stroke-linecap="round"/><path d="M0 63.0 L0 93.0" stroke="#FFC7EC" stroke-width="11" stroke-linecap="round"/><path d="M22 55.0 L22 101.0" stroke="#FFC7EC" stroke-width="11" stroke-linecap="round"/><path d="M44 63.0 L44 93.0" stroke="#FFC7EC" stroke-width="11" stroke-linecap="round"/><path d="M66 71.0 L66 85.0" stroke="#FFC7EC" stroke-width="11" stroke-linecap="round"/></g></g></svg>