<svg xmlns="http://www.w3.org/2000/svg" width="1000" height="1000" viewBox="0 0 1000 1000"><defs></defs><rect x="0.0" y="0.0" width="1000.0" height="1000.0" rx="0" fill="#141118" /><line x1="0.0" y1="0.0" x2="0.0" y2="1000.0" stroke="#3A3442" stroke-width="2" stroke-linecap="round" opacity="1"/><line x1="0.0" y1="0.0" x2="1000.0" y2="0.0" stroke="#3A3442" stroke-width="2" stroke-linecap="round" opacity="1"/><line x1="25.0" y1="0.0" x2="25.0" y2="1000.0" stroke="#26222B" stroke-width="1" stroke-linecap="round" opacity="1"/><line x1="0.0" y1="25.0" x2="1000.0" y2="25.0" stroke="#26222B" stroke-width="1" stroke-linecap="round" opacity="1"/><line x1="50.0" y1="0.0" x2="50.0" y2="1000.0" stroke="#26222B" stroke-width="1" stroke-linecap="round" opacity="1"/><line x1="0.0" y1="50.0" x2="1000.0" y2="50.0" stroke="#26222B" stroke-width="1" stroke-linecap="round" opacity="1"/><line x1="75.0" y1="0.0" x2="75.0" y2="1000.0" stroke="#26222B" stroke-width="1" stroke-linecap="round" opacity="1"/><line x1="0.0" y1="75.0" x2="1000.0" y2="75.0" stroke="#26222B" stroke-width="1" stroke-linecap="round" opacity="1"/><line x1="100.0" y1="0.0" x2="100.0" y2="1000.0" stroke="#26222B" stroke-width="1" stroke-linecap="round" opacity="1"/><line x1="0.0" y1="100.0" x2="1000.0" y2="100.0" stroke="#26222B" stroke-width="1" stroke-linecap="round" opacity="1"/><line x1="125.0" y1="0.0" x2="125.0" y2="1000.0" stroke="#3A3442" stroke-width="2" stroke-linecap="round" opacity="1"/><line x1="0.0" y1="125.0" x2="1000.0" y2="125.0" stroke="#3A3442" stroke-width="2" stroke-linecap="round" opacity="1"/><line x1="150.0" y1="0.0" x2="150.0" y2="1000.0" stroke="#26222B" stroke-width="1" stroke-linecap="round" opacity="1"/><line x1="0.0" y1="150.0" x2="1000.0" y2="150.0" stroke="#26222B" stroke-width="1" stroke-linecap="round" opacity="1"/><line x1="175.0" y1="0.0" x2="175.0" y2="1000.0" stroke="#26222B" stroke-width="1" stroke-linecap="round" opacity="1"/><line x1="0.0" y1="175.0" x2="1000.0" y2="175.0" stroke="#26222B" stroke-width="1" stroke-linecap="round" opacity="1"/><line x1="200.0" y1="0.0" x2="200.0" y2="1000.0" stroke="#26222B" stroke-width="1" stroke-linecap="round" opacity="1"/><line x1="0.0" y1="200.0" x2="1000.0" y2="200.0" stroke="#26222B" stroke-width="1" stroke-linecap="round" opacity="1"/><line x1="225.0" y1="0.0" x2="225.0" y2="1000.0" stroke="#26222B" stroke-width="1" stroke-linecap="round" opacity="1"/><line x1="0.0" y1="225.0" x2="1000.0" y2="225.0" stroke="#26222B" stroke-width="1" stroke-linecap="round" opacity="1"/><line x1="250.0" y1="0.0" x2="250.0" y2="1000.0" stroke="#3A3442" stroke-width="2" stroke-linecap="round" opacity="1"/><line x1="0.0" y1="250.0" x2="1000.0" y2="250.0" stroke="#3A3442" stroke-width="2" stroke-linecap="round" opacity="1"/><line x1="275.0" y1="0.0" x2="275.0" y2="1000.0" stroke="#26222B" stroke-width="1" stroke-linecap="round" opacity="1"/><line x1="0.0" y1="275.0" x2="1000.0" y2="275.0" stroke="#26222B" stroke-width="1" stroke-linecap="round" opacity="1"/><line x1="300.0" y1="0.0" x2="300.0" y2="1000.0" stroke="#26222B" stroke-width="1" stroke-linecap="round" opacity="1"/><line x1="0.0" y1="300.0" x2="1000.0" y2="300.0" stroke="#26222B" stroke-width="1" stroke-linecap="round" opacity="1"/><line x1="325.0" y1="0.0" x2="325.0" y2="1000.0" stroke="#26222B" stroke-width="1" stroke-linecap="round" opacity="1"/><line x1="0.0" y1="325.0" x2="1000.0" y2="325.0" stroke="#26222B" stroke-width="1" stroke-linecap="round" opacity="1"/><line x1="350.0" y1="0.0" x2="350.0" y2="1000.0" stroke="#26222B" stroke-width="1" stroke-linecap="round" opacity="1"/><line x1="0.0" y1="350.0" x2="1000.0" y2="350.0" stroke="#26222B" stroke-width="1" stroke-linecap="round" opacity="1"/><line x1="375.0" y1="0.0" x2="375.0" y2="1000.0" stroke="#3A3442" stroke-width="2" stroke-linecap="round" opacity="1"/><line x1="0.0" y1="375.0" x2="1000.0" y2="375.0" stroke="#3A3442" stroke-width="2" stroke-linecap="round" opacity="1"/><line x1="400.0" y1="0.0" x2="400.0" y2="1000.0" stroke="#26222B" stroke-width="1" stroke-linecap="round" opacity="1"/><line x1="0.0" y1="400.0" x2="1000.0" y2="400.0" stroke="#26222B" stroke-width="1" stroke-linecap="round" opacity="1"/><line x1="425.0" y1="0.0" x2="425.0" y2="1000.0" stroke="#26222B" stroke-width="1" stroke-linecap="round" opacity="1"/><line x1="0.0" y1="425.0" x2="1000.0" y2="425.0" stroke="#26222B" stroke-width="1" stroke-linecap="round" opacity="1"/><line x1="450.0" y1="0.0" x2="450.0" y2="1000.0" stroke="#26222B" stroke-width="1" stroke-linecap="round" opacity="1"/><line x1="0.0" y1="450.0" x2="1000.0" y2="450.0" stroke="#26222B" stroke-width="1" stroke-linecap="round" opacity="1"/><line x1="475.0" y1="0.0" x2="475.0" y2="1000.0" stroke="#26222B" stroke-width="1" stroke-linecap="round" opacity="1"/><line x1="0.0" y1="475.0" x2="1000.0" y2="475.0" stroke="#26222B" stroke-width="1" stroke-linecap="round" opacity="1"/><line x1="500.0" y1="0.0" x2="500.0" y2="1000.0" stroke="#3A3442" stroke-width="2" stroke-linecap="round" opacity="1"/><line x1="0.0" y1="500.0" x2="1000.0" y2="500.0" stroke="#3A3442" stroke-width="2" stroke-linecap="round" opacity="1"/><line x1="525.0" y1="0.0" x2="525.0" y2="1000.0" stroke="#26222B" stroke-width="1" stroke-linecap="round" opacity="1"/><line x1="0.0" y1="525.0" x2="1000.0" y2="525.0" stroke="#26222B" stroke-width="1" stroke-linecap="round" opacity="1"/><line x1="550.0" y1="0.0" x2="550.0" y2="1000.0" stroke="#26222B" stroke-width="1" stroke-linecap="round" opacity="1"/><line x1="0.0" y1="550.0" x2="1000.0" y2="550.0" stroke="#26222B" stroke-width="1" stroke-linecap="round" opacity="1"/><line x1="575.0" y1="0.0" x2="575.0" y2="1000.0" stroke="#26222B" stroke-width="1" stroke-linecap="round" opacity="1"/><line x1="0.0" y1="575.0" x2="1000.0" y2="575.0" stroke="#26222B" stroke-width="1" stroke-linecap="round" opacity="1"/><line x1="600.0" y1="0.0" x2="600.0" y2="1000.0" stroke="#26222B" stroke-width="1" stroke-linecap="round" opacity="1"/><line x1="0.0" y1="600.0" x2="1000.0" y2="600.0" stroke="#26222B" stroke-width="1" stroke-linecap="round" opacity="1"/><line x1="625.0" y1="0.0" x2="625.0" y2="1000.0" stroke="#3A3442" stroke-width="2" stroke-linecap="round" opacity="1"/><line x1="0.0" y1="625.0" x2="1000.0" y2="625.0" stroke="#3A3442" stroke-width="2" stroke-linecap="round" opacity="1"/><line x1="650.0" y1="0.0" x2="650.0" y2="1000.0" stroke="#26222B" stroke-width="1" stroke-linecap="round" opacity="1"/><line x1="0.0" y1="650.0" x2="1000.0" y2="650.0" stroke="#26222B" stroke-width="1" stroke-linecap="round" opacity="1"/><line x1="675.0" y1="0.0" x2="675.0" y2="1000.0" stroke="#26222B" stroke-width="1" stroke-linecap="round" opacity="1"/><line x1="0.0" y1="675.0" x2="1000.0" y2="675.0" stroke="#26222B" stroke-width="1" stroke-linecap="round" opacity="1"/><line x1="700.0" y1="0.0" x2="700.0" y2="1000.0" stroke="#26222B" stroke-width="1" stroke-linecap="round" opacity="1"/><line x1="0.0" y1="700.0" x2="1000.0" y2="700.0" stroke="#26222B" stroke-width="1" stroke-linecap="round" opacity="1"/><line x1="725.0" y1="0.0" x2="725.0" y2="1000.0" stroke="#26222B" stroke-width="1" stroke-linecap="round" opacity="1"/><line x1="0.0" y1="725.0" x2="1000.0" y2="725.0" stroke="#26222B" stroke-width="1" stroke-linecap="round" opacity="1"/><line x1="750.0" y1="0.0" x2="750.0" y2="1000.0" stroke="#3A3442" stroke-width="2" stroke-linecap="round" opacity="1"/><line x1="0.0" y1="750.0" x2="1000.0" y2="750.0" stroke="#3A3442" stroke-width="2" stroke-linecap="round" opacity="1"/><line x1="775.0" y1="0.0" x2="775.0" y2="1000.0" stroke="#26222B" stroke-width="1" stroke-linecap="round" opacity="1"/><line x1="0.0" y1="775.0" x2="1000.0" y2="775.0" stroke="#26222B" stroke-width="1" stroke-linecap="round" opacity="1"/><line x1="800.0" y1="0.0" x2="800.0" y2="1000.0" stroke="#26222B" stroke-width="1" stroke-linecap="round" opacity="1"/><line x1="0.0" y1="800.0" x2="1000.0" y2="800.0" stroke="#26222B" stroke-width="1" stroke-linecap="round" opacity="1"/><line x1="825.0" y1="0.0" x2="825.0" y2="1000.0" stroke="#26222B" stroke-width="1" stroke-linecap="round" opacity="1"/><line x1="0.0" y1="825.0" x2="1000.0" y2="825.0" stroke="#26222B" stroke-width="1" stroke-linecap="round" opacity="1"/><line x1="850.0" y1="0.0" x2="850.0" y2="1000.0" stroke="#26222B" stroke-width="1" stroke-linecap="round" opacity="1"/><line x1="0.0" y1="850.0" x2="1000.0" y2="850.0" stroke="#26222B" stroke-width="1" stroke-linecap="round" opacity="1"/><line x1="875.0" y1="0.0" x2="875.0" y2="1000.0" stroke="#3A3442" stroke-width="2" stroke-linecap="round" opacity="1"/><line x1="0.0" y1="875.0" x2="1000.0" y2="875.0" stroke="#3A3442" stroke-width="2" stroke-linecap="round" opacity="1"/><line x1="900.0" y1="0.0" x2="900.0" y2="1000.0" stroke="#26222B" stroke-width="1" stroke-linecap="round" opacity="1"/><line x1="0.0" y1="900.0" x2="1000.0" y2="900.0" stroke="#26222B" stroke-width="1" stroke-linecap="round" opacity="1"/><line x1="925.0" y1="0.0" x2="925.0" y2="1000.0" stroke="#26222B" stroke-width="1" stroke-linecap="round" opacity="1"/><line x1="0.0" y1="925.0" x2="1000.0" y2="925.0" stroke="#26222B" stroke-width="1" stroke-linecap="round" opacity="1"/><line x1="950.0" y1="0.0" x2="950.0" y2="1000.0" stroke="#26222B" stroke-width="1" stroke-linecap="round" opacity="1"/><line x1="0.0" y1="950.0" x2="1000.0" y2="950.0" stroke="#26222B" stroke-width="1" stroke-linecap="round" opacity="1"/><line x1="975.0" y1="0.0" x2="975.0" y2="1000.0" stroke="#26222B" stroke-width="1" stroke-linecap="round" opacity="1"/><line x1="0.0" y1="975.0" x2="1000.0" y2="975.0" stroke="#26222B" stroke-width="1" stroke-linecap="round" opacity="1"/><line x1="1000.0" y1="0.0" x2="1000.0" y2="1000.0" stroke="#3A3442" stroke-width="2" stroke-linecap="round" opacity="1"/><line x1="0.0" y1="1000.0" x2="1000.0" y2="1000.0" stroke="#3A3442" stroke-width="2" stroke-linecap="round" opacity="1"/><circle cx="500.0" cy="500.0" r="290.0" fill="none" stroke="#FF93DA" stroke-width="2.5" stroke-dasharray="14 12" opacity=".8"/><circle cx="500.0" cy="500.0" r="375.0" fill="none" stroke="#FFC7EC" stroke-width="1.5" opacity=".35"/><line x1="500.0" y1="60.0" x2="500.0" y2="940.0" stroke="#FF93DA" stroke-width="1.5" stroke-linecap="round" opacity=".55"/><line x1="60.0" y1="500.0" x2="940.0" y2="500.0" stroke="#FF93DA" stroke-width="1.5" stroke-linecap="round" opacity=".55"/><circle cx="125.0" cy="125.0" r="7.0" fill="#FF93DA" /><circle cx="875.0" cy="125.0" r="7.0" fill="#FF93DA" /><circle cx="125.0" cy="875.0" r="7.0" fill="#FF93DA" /><circle cx="875.0" cy="875.0" r="7.0" fill="#FF93DA" /><circle cx="500.0" cy="500.0" r="158.0" fill="#0B0A0D" /><circle cx="500.0" cy="500.0" r="172.0" fill="none" stroke="#FFC7EC" stroke-width="2.5" opacity=".85"/><g transform="translate(500 500) scale(0.8)"><g transform="translate(-4 4)"><path d="M-128.0 46.0 L-127.0 45.8 L-126.0 45.2 L-125.0 44.4 L-124.0 43.4 L-123.0 42.2 L-122.0 40.8 L-121.0 39.3 L-120.0 37.7 L-119.0 36.0 L-118.0 34.3 L-117.0 32.6 L-116.0 30.9 L-115.0 29.3 L-114.0 27.8 L-113.0 26.4 L-112.0 25.2 L-111.0 24.1 L-110.0 23.3 L-109.0 22.8 L-108.0 22.5 L-107.0 22.4 L-106.0 22.7 L-105.0 23.3 L-104.0 24.1 L-103.0 25.3 L-102.0 26.8 L-101.0 28.6 L-100.0 30.6 L-99.0 32.9 L-98.0 35.5 L-97.0 38.3 L-96.0 41.2 L-95.0 44.4 L-94.0 47.7 L-93.0 51.0 L-92.0 54.5 L-91.0 57.9 L-90.0 61.4 L-89.0 64.8 L-88.0 68.1 L-87.0 71.3 L-86.0 74.3 L-85.0 77.1 L-84.0 79.6 L-83.0 81.9 L-82.0 83.9 L-81.0 85.5 L-80.0 86.9 L-79.0 87.8 L-78.0 88.4 L-77.0 88.5 L-76.0 88.3 L-75.0 87.7 L-74.0 86.6 L-73.0 85.2 L-72.0 83.4 L-71.0 81.2 L-70.0 78.7 L-69.0 75.9 L-68.0 72.8 L-67.0 69.5 L-66.0 65.9 L-65.0 62.1 L-64.0 58.2 L-63.0 54.2 L-62.0 50.1 L-61.0 46.0 L-60.0 41.9 L-59.0 37.9 L-58.0 34.0 L-57.0 30.2 L-56.0 26.6 L-55.0 23.2 L-54.0 20.1 L-53.0 17.3 L-52.0 14.8 L-51.0 12.6 L-50.0 10.7 L-49.0 9.2 L-48.0 8.1 L-47.0 7.3 L-46.0 7.0 L-45.0 7.0 L-44.0 7.4 L-43.0 8.1 L-42.0 9.2 L-41.0 10.7 L-40.0 12.4 L-39.0 14.4 L-38.0 16.6 L-37.0 19.0 L-36.0 21.6 L-35.0 24.4 L-34.0 27.3 L-33.0 30.2 L-32.0 33.2 L-31.0 36.2 L-30.0 39.1 L-29.0 41.9 L-28.0 44.7 L-27.0 47.3 L-26.0 49.7 L-25.0 52.0 L-24.0 54.0 L-23.0 55.8 L-22.0 57.3 L-21.0 58.6 L-20.0 59.6 L-19.0 60.3 L-18.0 60.7 L-17.0 60.9 L-16.0 60.8 L-15.0 60.5 L-14.0 59.9 L-13.0 59.2 L-12.0 58.2 L-11.0 57.1 L-10.0 55.8 L-9.0 54.4 L-8.0 52.9 L-7.0 51.4 L-6.0 49.8 L-5.0 48.1 L-4.0 46.2 L-3.0 46.0 L-2.0 46.0 L-1.0 46.0 L0.0 46.0 L1.0 46.0 L2.0 46.0 L3.0 46.0 L4.0 46.0 L5.0 46.0 L6.0 46.0 L6.0 46.0" fill="none" stroke="#FFC7EC" stroke-width="13" stroke-linecap="round" stroke-linejoin="round"/><path d="M36 46 L128 46" stroke="#FFC7EC" stroke-width="13" stroke-linecap="round" stroke-dasharray="0.1 25"/><path d="M6.0 46.0 L50.4 25.8 L124.9 -63.1 L92.8 -90.1 L18.2 -1.2 Z" fill="#0B0A0D" stroke="#FFC7EC" stroke-width="13" stroke-linejoin="round"/><path d="M50.4 25.8 L18.2 -1.2" stroke="#FFC7EC" stroke-width="13" stroke-linecap="round"/><path d="M105.6 -40.1 L73.5 -67.1" stroke="#FFC7EC" stroke-width="13" stroke-linecap="round"/><path d="M6.0 46.0 L21.0 39.0 L10.3 30.0 Z" fill="#FFC7EC" stroke="#FFC7EC" stroke-width="5" stroke-linejoin="round"/></g></g></svg>