<svg xmlns="http://www.w3.org/2000/svg" width="1000" height="1000" viewBox="0 0 1000 1000"><defs></defs><rect x="0.0" y="0.0" width="1000.0" height="1000.0" rx="0" fill="#FFC7EC" /><path d="M-10.0 39.7 L-2.0 40.0 L6.0 40.0 L14.0 39.9 L22.0 39.5 L30.0 39.0 L38.0 38.4 L46.0 37.5 L54.0 36.6 L62.0 35.5 L70.0 34.3 L78.0 33.0 L86.0 31.7 L94.0 30.3 L102.0 29.0 L110.0 27.6 L118.0 26.3 L126.0 25.1 L134.0 24.0 L142.0 22.9 L150.0 22.0 L158.0 21.3 L166.0 20.7 L174.0 20.3 L182.0 20.1 L190.0 20.0 L198.0 20.1 L206.0 20.5 L214.0 21.0 L222.0 21.6 L230.0 22.4 L238.0 23.4 L246.0 24.5 L254.0 25.7 L262.0 26.9 L270.0 28.2 L278.0 29.6 L286.0 31.0 L294.0 32.3 L302.0 33.6 L310.0 34.8 L318.0 36.0 L326.0 37.0 L334.0 37.9 L342.0 38.7 L350.0 39.3 L358.0 39.7 L366.0 39.9 L374.0 40.0 L382.0 39.9 L390.0 39.6 L398.0 39.1 L406.0 38.4 L414.0 37.6 L422.0 36.6 L430.0 35.6 L438.0 34.4 L446.0 33.1 L454.0 31.8 L462.0 30.5 L470.0 29.1 L478.0 27.7 L486.0 26.4 L494.0 25.2 L502.0 24.1 L510.0 23.0 L518.0 22.1 L526.0 21.3 L534.0 20.7 L542.0 20.3 L550.0 20.1 L558.0 20.0 L566.0 20.1 L574.0 20.4 L582.0 20.9 L590.0 21.6 L598.0 22.4 L606.0 23.3 L614.0 24.4 L622.0 25.6 L630.0 26.8 L638.0 28.1 L646.0 29.5 L654.0 30.9 L662.0 32.2 L670.0 33.5 L678.0 34.8 L686.0 35.9 L694.0 36.9 L702.0 37.9 L710.0 38.6 L718.0 39.2 L726.0 39.7 L734.0 39.9 L742.0 40.0 L750.0 39.9 L758.0 39.6 L766.0 39.1 L774.0 38.5 L782.0 37.7 L790.0 36.7 L798.0 35.7 L806.0 34.5 L814.0 33.2 L822.0 31.9 L830.0 30.6 L838.0 29.2 L846.0 27.8 L854.0 26.5 L862.0 25.3 L870.0 24.1 L878.0 23.1 L886.0 22.2 L894.0 21.4 L902.0 20.8 L910.0 20.3 L918.0 20.1 L926.0 20.0 L934.0 20.1 L942.0 20.4 L950.0 20.9 L958.0 21.5 L966.0 22.3 L974.0 23.2 L982.0 24.3 L990.0 25.5 L998.0 26.7 L1006.0 28.0" fill="none" stroke="#151217" stroke-width="2.4" stroke-linejoin="round" stroke-linecap="round"  opacity=".75"/><path d="M-10.0 74.7 L-2.0 76.2 L6.0 77.3 L14.0 77.8 L22.0 77.7 L30.0 77.1 L38.0 76.0 L46.0 74.3 L54.0 72.2 L62.0 69.8 L70.0 67.2 L78.0 64.4 L86.0 61.6 L94.0 58.9 L102.0 56.4 L110.0 54.3 L118.0 52.5 L126.0 51.2 L134.0 50.4 L142.0 50.2 L150.0 50.5 L158.0 51.4 L166.0 52.8 L174.0 54.7 L182.0 56.9 L190.0 59.5 L198.0 62.2 L206.0 65.0 L214.0 67.7 L222.0 70.3 L230.0 72.7 L238.0 74.7 L246.0 76.2 L254.0 77.3 L262.0 77.8 L270.0 77.7 L278.0 77.1 L286.0 76.0 L294.0 74.3 L302.0 72.3 L310.0 69.9 L318.0 67.2 L326.0 64.4 L334.0 61.7 L342.0 59.0 L350.0 56.5 L358.0 54.3 L366.0 52.5 L374.0 51.2 L382.0 50.4 L390.0 50.2 L398.0 50.5 L406.0 51.4 L414.0 52.8 L422.0 54.6 L430.0 56.9 L438.0 59.4 L446.0 62.1 L454.0 64.9 L462.0 67.7 L470.0 70.3 L478.0 72.7 L486.0 74.7 L494.0 76.2 L502.0 77.3 L510.0 77.8 L518.0 77.7 L526.0 77.1 L534.0 76.0 L542.0 74.3 L550.0 72.3 L558.0 69.9 L566.0 67.2 L574.0 64.5 L582.0 61.7 L590.0 59.0 L598.0 56.5 L606.0 54.3 L614.0 52.5 L622.0 51.2 L630.0 50.4 L638.0 50.2 L646.0 50.5 L654.0 51.4 L662.0 52.8 L670.0 54.6 L678.0 56.9 L686.0 59.4 L694.0 62.1 L702.0 64.9 L710.0 67.7 L718.0 70.3 L726.0 72.6 L734.0 74.6 L742.0 76.2 L750.0 77.3 L758.0 77.8 L766.0 77.7 L774.0 77.1 L782.0 76.0 L790.0 74.4 L798.0 72.3 L806.0 69.9 L814.0 67.3 L822.0 64.5 L830.0 61.7 L838.0 59.0 L846.0 56.5 L854.0 54.3 L862.0 52.5 L870.0 51.2 L878.0 50.4 L886.0 50.2 L894.0 50.5 L902.0 51.4 L910.0 52.8 L918.0 54.6 L926.0 56.8 L934.0 59.4 L942.0 62.1 L950.0 64.9 L958.0 67.7 L966.0 70.3 L974.0 72.6 L982.0 74.6 L990.0 76.2 L998.0 77.3 L1006.0 77.8" fill="none" stroke="#151217" stroke-width="2.4" stroke-linejoin="round" stroke-linecap="round" stroke-dasharray="16 12" opacity=".75"/><path d="M-10.0 114.1 L-2.0 112.8 L6.0 111.1 L14.0 108.8 L22.0 106.1 L30.0 103.0 L38.0 99.8 L46.0 96.6 L54.0 93.3 L62.0 90.3 L70.0 87.5 L78.0 85.2 L86.0 83.3 L94.0 82.1 L102.0 81.4 L110.0 81.3 L118.0 81.9 L126.0 83.1 L134.0 84.9 L142.0 87.2 L150.0 89.9 L158.0 92.9 L166.0 96.1 L174.0 99.4 L182.0 102.6 L190.0 105.7 L198.0 108.4 L206.0 110.8 L214.0 112.6 L222.0 113.9 L230.0 114.6 L238.0 114.7 L246.0 114.1 L254.0 112.9 L262.0 111.1 L270.0 108.8 L278.0 106.1 L286.0 103.1 L294.0 99.9 L302.0 96.6 L310.0 93.4 L318.0 90.3 L326.0 87.6 L334.0 85.2 L342.0 83.4 L350.0 82.1 L358.0 81.4 L366.0 81.3 L374.0 81.9 L382.0 83.1 L390.0 84.9 L398.0 87.2 L406.0 89.9 L414.0 92.9 L422.0 96.1 L430.0 99.4 L438.0 102.6 L446.0 105.6 L454.0 108.4 L462.0 110.8 L470.0 112.6 L478.0 113.9 L486.0 114.6 L494.0 114.7 L502.0 114.1 L510.0 112.9 L518.0 111.1 L526.0 108.8 L534.0 106.1 L542.0 103.1 L550.0 99.9 L558.0 96.7 L566.0 93.4 L574.0 90.4 L582.0 87.6 L590.0 85.3 L598.0 83.4 L606.0 82.1 L614.0 81.4 L622.0 81.3 L630.0 81.9 L638.0 83.1 L646.0 84.9 L654.0 87.1 L662.0 89.8 L670.0 92.8 L678.0 96.0 L686.0 99.3 L694.0 102.5 L702.0 105.6 L710.0 108.4 L718.0 110.7 L726.0 112.6 L734.0 113.9 L742.0 114.6 L750.0 114.7 L758.0 114.1 L766.0 112.9 L774.0 111.2 L782.0 108.9 L790.0 106.2 L798.0 103.2 L806.0 100.0 L814.0 96.7 L822.0 93.5 L830.0 90.4 L838.0 87.7 L846.0 85.3 L854.0 83.4 L862.0 82.1 L870.0 81.4 L878.0 81.3 L886.0 81.9 L894.0 83.1 L902.0 84.8 L910.0 87.1 L918.0 89.8 L926.0 92.8 L934.0 96.0 L942.0 99.3 L950.0 102.5 L958.0 105.5 L966.0 108.3 L974.0 110.7 L982.0 112.6 L990.0 113.9 L998.0 114.6 L1006.0 114.7" fill="none" stroke="#151217" stroke-width="2.4" stroke-linejoin="round" stroke-linecap="round"  opacity=".75"/><path d="M-10.0 121.6 L-2.0 118.8 L6.0 116.5 L14.0 114.9 L22.0 114.1 L30.0 114.1 L38.0 114.9 L46.0 116.4 L54.0 118.7 L62.0 121.5 L70.0 124.8 L78.0 128.4 L86.0 132.2 L94.0 135.9 L102.0 139.5 L110.0 142.8 L118.0 145.6 L126.0 147.7 L134.0 149.2 L142.0 149.9 L150.0 149.8 L158.0 149.0 L166.0 147.3 L174.0 145.0 L182.0 142.1 L190.0 138.8 L198.0 135.1 L206.0 131.3 L214.0 127.6 L222.0 124.0 L230.0 120.8 L238.0 118.1 L246.0 116.0 L254.0 114.7 L262.0 114.0 L270.0 114.2 L278.0 115.2 L286.0 116.9 L294.0 119.3 L302.0 122.3 L310.0 125.7 L318.0 129.3 L326.0 133.1 L334.0 136.9 L342.0 140.4 L350.0 143.5 L358.0 146.2 L366.0 148.2 L374.0 149.5 L382.0 150.0 L390.0 149.7 L398.0 148.6 L406.0 146.8 L414.0 144.3 L422.0 141.3 L430.0 137.9 L438.0 134.2 L446.0 130.4 L454.0 126.7 L462.0 123.2 L470.0 120.1 L478.0 117.5 L486.0 115.6 L494.0 114.4 L502.0 114.0 L510.0 114.4 L518.0 115.6 L526.0 117.5 L534.0 120.0 L542.0 123.1 L550.0 126.6 L558.0 130.3 L566.0 134.1 L574.0 137.8 L582.0 141.2 L590.0 144.3 L598.0 146.7 L606.0 148.6 L614.0 149.7 L622.0 150.0 L630.0 149.5 L638.0 148.2 L646.0 146.2 L654.0 143.6 L662.0 140.5 L670.0 137.0 L678.0 133.2 L686.0 129.4 L694.0 125.8 L702.0 122.4 L710.0 119.4 L718.0 117.0 L726.0 115.2 L734.0 114.3 L742.0 114.0 L750.0 114.6 L758.0 116.0 L766.0 118.1 L774.0 120.8 L782.0 123.9 L790.0 127.5 L798.0 131.2 L806.0 135.0 L814.0 138.7 L822.0 142.0 L830.0 144.9 L838.0 147.3 L846.0 148.9 L854.0 149.8 L862.0 149.9 L870.0 149.2 L878.0 147.8 L886.0 145.6 L894.0 142.9 L902.0 139.6 L910.0 136.0 L918.0 132.3 L926.0 128.5 L934.0 124.9 L942.0 121.6 L950.0 118.7 L958.0 116.5 L966.0 114.9 L974.0 114.1 L982.0 114.1 L990.0 114.9 L998.0 116.5 L1006.0 118.7" fill="none" stroke="#151217" stroke-width="2.4" stroke-linejoin="round" stroke-linecap="round"  opacity=".75"/><path d="M-10.0 150.7 L-2.0 152.0 L6.0 153.6 L14.0 155.4 L22.0 157.5 L30.0 159.7 L38.0 162.0 L46.0 164.4 L54.0 166.9 L62.0 169.3 L70.0 171.7 L78.0 173.9 L86.0 176.0 L94.0 177.9 L102.0 179.5 L110.0 180.9 L118.0 182.0 L126.0 182.8 L134.0 183.2 L142.0 183.3 L150.0 183.0 L158.0 182.4 L166.0 181.4 L174.0 180.2 L182.0 178.7 L190.0 176.9 L198.0 174.9 L206.0 172.7 L214.0 170.4 L222.0 168.0 L230.0 165.5 L238.0 163.1 L246.0 160.7 L254.0 158.4 L262.0 156.3 L270.0 154.4 L278.0 152.7 L286.0 151.3 L294.0 150.2 L302.0 149.3 L310.0 148.9 L318.0 148.7 L326.0 148.9 L334.0 149.5 L342.0 150.4 L350.0 151.6 L358.0 153.1 L366.0 154.8 L374.0 156.8 L382.0 158.9 L390.0 161.2 L398.0 163.6 L406.0 166.1 L414.0 168.5 L422.0 170.9 L430.0 173.2 L438.0 175.3 L446.0 177.3 L454.0 179.0 L462.0 180.5 L470.0 181.7 L478.0 182.5 L486.0 183.1 L494.0 183.3 L502.0 183.1 L510.0 182.6 L518.0 181.8 L526.0 180.7 L534.0 179.2 L542.0 177.5 L550.0 175.6 L558.0 173.4 L566.0 171.2 L574.0 168.8 L582.0 166.4 L590.0 163.9 L598.0 161.5 L606.0 159.2 L614.0 157.0 L622.0 155.0 L630.0 153.3 L638.0 151.7 L646.0 150.5 L654.0 149.6 L662.0 149.0 L670.0 148.7 L678.0 148.8 L686.0 149.3 L694.0 150.0 L702.0 151.1 L710.0 152.5 L718.0 154.2 L726.0 156.1 L734.0 158.2 L742.0 160.4 L750.0 162.8 L758.0 165.2 L766.0 167.7 L774.0 170.1 L782.0 172.4 L790.0 174.6 L798.0 176.6 L806.0 178.5 L814.0 180.0 L822.0 181.3 L830.0 182.3 L838.0 182.9 L846.0 183.2 L854.0 183.2 L862.0 182.8 L870.0 182.1 L878.0 181.1 L886.0 179.7 L894.0 178.1 L902.0 176.3 L910.0 174.2 L918.0 172.0 L926.0 169.6 L934.0 167.2 L942.0 164.7 L950.0 162.3 L958.0 160.0 L966.0 157.7 L974.0 155.7 L982.0 153.8 L990.0 152.2 L998.0 150.9 L1006.0 149.9" fill="none" stroke="#151217" stroke-width="2.4" stroke-linejoin="round" stroke-linecap="round" stroke-dasharray="16 12" opacity=".75"/><path d="M-10.0 197.2 L-2.0 199.6 L6.0 202.1 L14.0 204.4 L22.0 206.7 L30.0 208.8 L38.0 210.6 L46.0 212.2 L54.0 213.4 L62.0 214.2 L70.0 214.7 L78.0 214.8 L86.0 214.4 L94.0 213.7 L102.0 212.6 L110.0 211.2 L118.0 209.5 L126.0 207.5 L134.0 205.3 L142.0 202.9 L150.0 200.5 L158.0 198.1 L166.0 195.7 L174.0 193.4 L182.0 191.3 L190.0 189.5 L198.0 187.9 L206.0 186.7 L214.0 185.8 L222.0 185.3 L230.0 185.2 L238.0 185.5 L246.0 186.2 L254.0 187.3 L262.0 188.7 L270.0 190.4 L278.0 192.4 L286.0 194.6 L294.0 196.9 L302.0 199.3 L310.0 201.8 L318.0 204.2 L326.0 206.4 L334.0 208.5 L342.0 210.4 L350.0 212.0 L358.0 213.2 L366.0 214.1 L374.0 214.7 L382.0 214.8 L390.0 214.5 L398.0 213.8 L406.0 212.8 L414.0 211.4 L422.0 209.7 L430.0 207.7 L438.0 205.5 L446.0 203.2 L454.0 200.8 L462.0 198.4 L470.0 196.0 L478.0 193.7 L486.0 191.6 L494.0 189.7 L502.0 188.1 L510.0 186.8 L518.0 185.9 L526.0 185.4 L534.0 185.2 L542.0 185.5 L550.0 186.1 L558.0 187.2 L566.0 188.5 L574.0 190.2 L582.0 192.2 L590.0 194.3 L598.0 196.6 L606.0 199.1 L614.0 201.5 L622.0 203.9 L630.0 206.2 L638.0 208.3 L646.0 210.2 L654.0 211.8 L662.0 213.1 L670.0 214.1 L678.0 214.6 L686.0 214.8 L694.0 214.6 L702.0 213.9 L710.0 212.9 L718.0 211.6 L726.0 209.9 L734.0 208.0 L742.0 205.8 L750.0 203.5 L758.0 201.1 L766.0 198.7 L774.0 196.3 L782.0 194.0 L790.0 191.8 L798.0 189.9 L806.0 188.3 L814.0 187.0 L822.0 186.0 L830.0 185.4 L838.0 185.2 L846.0 185.4 L854.0 186.0 L862.0 187.0 L870.0 188.3 L878.0 190.0 L886.0 191.9 L894.0 194.1 L902.0 196.4 L910.0 198.8 L918.0 201.2 L926.0 203.6 L934.0 205.9 L942.0 208.0 L950.0 210.0 L958.0 211.6 L966.0 213.0 L974.0 214.0 L982.0 214.6 L990.0 214.8 L998.0 214.6 L1006.0 214.0" fill="none" stroke="#151217" stroke-width="2.4" stroke-linejoin="round" stroke-linecap="round"  opacity=".75"/><path d="M-10.0 238.3 L-2.0 240.2 L6.0 241.9 L14.0 243.2 L22.0 244.3 L30.0 244.9 L38.0 245.1 L46.0 244.9 L54.0 244.4 L62.0 243.4 L70.0 242.1 L78.0 240.5 L86.0 238.6 L94.0 236.6 L102.0 234.4 L110.0 232.3 L118.0 230.2 L126.0 228.3 L134.0 226.6 L142.0 225.1 L150.0 224.0 L158.0 223.2 L166.0 222.9 L174.0 223.0 L182.0 223.4 L190.0 224.3 L198.0 225.5 L206.0 227.1 L214.0 228.9 L222.0 230.9 L230.0 233.0 L238.0 235.1 L246.0 237.2 L254.0 239.2 L262.0 241.0 L270.0 242.5 L278.0 243.7 L286.0 244.6 L294.0 245.0 L302.0 245.1 L310.0 244.7 L318.0 244.0 L326.0 242.8 L334.0 241.4 L342.0 239.7 L350.0 237.7 L358.0 235.6 L366.0 233.5 L374.0 231.4 L382.0 229.3 L390.0 227.5 L398.0 225.9 L406.0 224.6 L414.0 223.6 L422.0 223.0 L430.0 222.9 L438.0 223.1 L446.0 223.8 L454.0 224.8 L462.0 226.2 L470.0 227.8 L478.0 229.7 L486.0 231.8 L494.0 233.9 L502.0 236.1 L510.0 238.1 L518.0 240.0 L526.0 241.7 L534.0 243.1 L542.0 244.2 L550.0 244.8 L558.0 245.1 L566.0 245.0 L574.0 244.4 L582.0 243.5 L590.0 242.2 L598.0 240.6 L606.0 238.8 L614.0 236.8 L622.0 234.7 L630.0 232.5 L638.0 230.4 L646.0 228.5 L654.0 226.7 L662.0 225.3 L670.0 224.1 L678.0 223.3 L686.0 222.9 L694.0 222.9 L702.0 223.4 L710.0 224.2 L718.0 225.4 L726.0 226.9 L734.0 228.7 L742.0 230.6 L750.0 232.7 L758.0 234.9 L766.0 237.0 L774.0 239.0 L782.0 240.8 L790.0 242.4 L798.0 243.6 L806.0 244.5 L814.0 245.0 L822.0 245.1 L830.0 244.8 L838.0 244.1 L846.0 243.0 L854.0 241.6 L862.0 239.8 L870.0 237.9 L878.0 235.9 L886.0 233.7 L894.0 231.6 L902.0 229.5 L910.0 227.7 L918.0 226.0 L926.0 224.7 L934.0 223.7 L942.0 223.1 L950.0 222.9 L958.0 223.1 L966.0 223.7 L974.0 224.7 L982.0 226.0 L990.0 227.7 L998.0 229.5 L1006.0 231.6" fill="none" stroke="#151217" stroke-width="2.4" stroke-linejoin="round" stroke-linecap="round"  opacity=".75"/><path d="M-10.0 273.4 L-2.0 272.5 L6.0 271.5 L14.0 270.4 L22.0 269.2 L30.0 267.9 L38.0 266.7 L46.0 265.5 L54.0 264.4 L62.0 263.4 L70.0 262.5 L78.0 261.8 L86.0 261.3 L94.0 260.9 L102.0 260.8 L110.0 260.9 L118.0 261.2 L126.0 261.7 L134.0 262.4 L142.0 263.3 L150.0 264.3 L158.0 265.4 L166.0 266.6 L174.0 267.8 L182.0 269.0 L190.0 270.3 L198.0 271.4 L206.0 272.4 L214.0 273.3 L222.0 274.1 L230.0 274.7 L238.0 275.0 L246.0 275.2 L254.0 275.1 L262.0 274.9 L270.0 274.4 L278.0 273.7 L286.0 272.9 L294.0 271.9 L302.0 270.8 L310.0 269.7 L318.0 268.4 L326.0 267.2 L334.0 266.0 L342.0 264.8 L350.0 263.8 L358.0 262.8 L366.0 262.0 L374.0 261.4 L382.0 261.0 L390.0 260.8 L398.0 260.8 L406.0 261.1 L414.0 261.5 L422.0 262.1 L430.0 262.9 L438.0 263.9 L446.0 264.9 L454.0 266.1 L462.0 267.3 L470.0 268.6 L478.0 269.8 L486.0 271.0 L494.0 272.0 L502.0 273.0 L510.0 273.8 L518.0 274.5 L526.0 274.9 L534.0 275.1 L542.0 275.2 L550.0 275.0 L558.0 274.6 L566.0 274.0 L574.0 273.3 L582.0 272.3 L590.0 271.3 L598.0 270.1 L606.0 268.9 L614.0 267.7 L622.0 266.5 L630.0 265.3 L638.0 264.2 L646.0 263.2 L654.0 262.3 L662.0 261.7 L670.0 261.2 L678.0 260.9 L686.0 260.8 L694.0 260.9 L702.0 261.3 L710.0 261.8 L718.0 262.6 L726.0 263.5 L734.0 264.5 L742.0 265.6 L750.0 266.8 L758.0 268.1 L766.0 269.3 L774.0 270.5 L782.0 271.6 L790.0 272.6 L798.0 273.5 L806.0 274.2 L814.0 274.7 L822.0 275.1 L830.0 275.2 L838.0 275.1 L846.0 274.8 L854.0 274.3 L862.0 273.6 L870.0 272.7 L878.0 271.7 L886.0 270.6 L894.0 269.4 L902.0 268.2 L910.0 266.9 L918.0 265.7 L926.0 264.6 L934.0 263.6 L942.0 262.7 L950.0 261.9 L958.0 261.3 L966.0 261.0 L974.0 260.8 L982.0 260.9 L990.0 261.1 L998.0 261.6 L1006.0 262.3" fill="none" stroke="#151217" stroke-width="2.4" stroke-linejoin="round" stroke-linecap="round" stroke-dasharray="16 12" opacity=".75"/><path d="M-10.0 303.9 L-2.0 303.4 L6.0 302.9 L14.0 302.4 L22.0 301.8 L30.0 301.3 L38.0 300.8 L46.0 300.3 L54.0 299.8 L62.0 299.4 L70.0 299.0 L78.0 298.7 L86.0 298.4 L94.0 298.2 L102.0 298.1 L110.0 298.1 L118.0 298.1 L126.0 298.2 L134.0 298.4 L142.0 298.6 L150.0 298.9 L158.0 299.3 L166.0 299.7 L174.0 300.2 L182.0 300.7 L190.0 301.2 L198.0 301.7 L206.0 302.3 L214.0 302.8 L222.0 303.3 L230.0 303.8 L238.0 304.3 L246.0 304.7 L254.0 305.1 L262.0 305.4 L270.0 305.6 L278.0 305.8 L286.0 305.9 L294.0 305.9 L302.0 305.9 L310.0 305.8 L318.0 305.6 L326.0 305.3 L334.0 305.0 L342.0 304.7 L350.0 304.2 L358.0 303.8 L366.0 303.3 L374.0 302.7 L382.0 302.2 L390.0 301.7 L398.0 301.1 L406.0 300.6 L414.0 300.1 L422.0 299.7 L430.0 299.2 L438.0 298.9 L446.0 298.6 L454.0 298.3 L462.0 298.2 L470.0 298.1 L478.0 298.1 L486.0 298.1 L494.0 298.2 L502.0 298.4 L510.0 298.7 L518.0 299.0 L526.0 299.4 L534.0 299.8 L542.0 300.3 L550.0 300.8 L558.0 301.3 L566.0 301.9 L574.0 302.4 L582.0 303.0 L590.0 303.5 L598.0 304.0 L606.0 304.4 L614.0 304.8 L622.0 305.2 L630.0 305.5 L638.0 305.7 L646.0 305.8 L654.0 305.9 L662.0 305.9 L670.0 305.9 L678.0 305.7 L686.0 305.5 L694.0 305.3 L702.0 304.9 L710.0 304.5 L718.0 304.1 L726.0 303.6 L734.0 303.1 L742.0 302.6 L750.0 302.0 L758.0 301.5 L766.0 301.0 L774.0 300.5 L782.0 300.0 L790.0 299.5 L798.0 299.1 L806.0 298.8 L814.0 298.5 L822.0 298.3 L830.0 298.1 L838.0 298.1 L846.0 298.1 L854.0 298.1 L862.0 298.3 L870.0 298.5 L878.0 298.8 L886.0 299.1 L894.0 299.5 L902.0 300.0 L910.0 300.5 L918.0 301.0 L926.0 301.5 L934.0 302.0 L942.0 302.6 L950.0 303.1 L958.0 303.6 L966.0 304.1 L974.0 304.5 L982.0 304.9 L990.0 305.3 L998.0 305.5 L1006.0 305.7" fill="none" stroke="#151217" stroke-width="2.4" stroke-linejoin="round" stroke-linecap="round"  opacity=".75"/><path d="M-10.0 338.1 L-2.0 338.2 L6.0 338.2 L14.0 338.1 L22.0 337.9 L30.0 337.6 L38.0 337.3 L46.0 336.9 L54.0 336.5 L62.0 336.1 L70.0 335.6 L78.0 335.2 L86.0 334.8 L94.0 334.5 L102.0 334.2 L110.0 334.0 L118.0 333.9 L126.0 333.8 L134.0 333.9 L142.0 334.0 L150.0 334.2 L158.0 334.5 L166.0 334.9 L174.0 335.3 L182.0 335.7 L190.0 336.1 L198.0 336.6 L206.0 337.0 L214.0 337.3 L222.0 337.7 L230.0 337.9 L238.0 338.1 L246.0 338.2 L254.0 338.2 L262.0 338.1 L270.0 337.9 L278.0 337.7 L286.0 337.3 L294.0 337.0 L302.0 336.6 L310.0 336.1 L318.0 335.7 L326.0 335.3 L334.0 334.9 L342.0 334.5 L350.0 334.2 L358.0 334.0 L366.0 333.9 L374.0 333.8 L382.0 333.9 L390.0 334.0 L398.0 334.2 L406.0 334.5 L414.0 334.8 L422.0 335.2 L430.0 335.6 L438.0 336.0 L446.0 336.5 L454.0 336.9 L462.0 337.3 L470.0 337.6 L478.0 337.9 L486.0 338.1 L494.0 338.2 L502.0 338.2 L510.0 338.1 L518.0 337.9 L526.0 337.7 L534.0 337.4 L542.0 337.0 L550.0 336.6 L558.0 336.2 L566.0 335.8 L574.0 335.3 L582.0 334.9 L590.0 334.6 L598.0 334.3 L606.0 334.0 L614.0 333.9 L622.0 333.8 L630.0 333.8 L638.0 333.9 L646.0 334.1 L654.0 334.4 L662.0 334.7 L670.0 335.1 L678.0 335.5 L686.0 336.0 L694.0 336.4 L702.0 336.8 L710.0 337.2 L718.0 337.5 L726.0 337.8 L734.0 338.0 L742.0 338.1 L750.0 338.2 L758.0 338.1 L766.0 338.0 L774.0 337.8 L782.0 337.5 L790.0 337.1 L798.0 336.7 L806.0 336.3 L814.0 335.9 L822.0 335.4 L830.0 335.0 L838.0 334.6 L846.0 334.3 L854.0 334.1 L862.0 333.9 L870.0 333.8 L878.0 333.8 L886.0 333.9 L894.0 334.1 L902.0 334.4 L910.0 334.7 L918.0 335.0 L926.0 335.5 L934.0 335.9 L942.0 336.3 L950.0 336.7 L958.0 337.1 L966.0 337.5 L974.0 337.8 L982.0 338.0 L990.0 338.1 L998.0 338.2 L1006.0 338.1" fill="none" stroke="#151217" stroke-width="2.4" stroke-linejoin="round" stroke-linecap="round"  opacity=".75"/><path d="M-10.0 368.5 L-2.0 368.3 L6.0 368.1 L14.0 367.9 L22.0 367.8 L30.0 367.7 L38.0 367.7 L46.0 367.7 L54.0 367.7 L62.0 367.8 L70.0 368.0 L78.0 368.1 L86.0 368.3 L94.0 368.6 L102.0 368.8 L110.0 369.1 L118.0 369.4 L126.0 369.7 L134.0 370.1 L142.0 370.4 L150.0 370.7 L158.0 371.0 L166.0 371.3 L174.0 371.5 L182.0 371.7 L190.0 371.9 L198.0 372.1 L206.0 372.2 L214.0 372.3 L222.0 372.3 L230.0 372.3 L238.0 372.3 L246.0 372.2 L254.0 372.0 L262.0 371.9 L270.0 371.7 L278.0 371.4 L286.0 371.2 L294.0 370.9 L302.0 370.6 L310.0 370.3 L318.0 370.0 L326.0 369.6 L334.0 369.3 L342.0 369.0 L350.0 368.8 L358.0 368.5 L366.0 368.3 L374.0 368.1 L382.0 367.9 L390.0 367.8 L398.0 367.7 L406.0 367.7 L414.0 367.7 L422.0 367.7 L430.0 367.8 L438.0 367.9 L446.0 368.1 L454.0 368.3 L462.0 368.6 L470.0 368.8 L478.0 369.1 L486.0 369.4 L494.0 369.7 L502.0 370.0 L510.0 370.3 L518.0 370.7 L526.0 371.0 L534.0 371.2 L542.0 371.5 L550.0 371.7 L558.0 371.9 L566.0 372.1 L574.0 372.2 L582.0 372.3 L590.0 372.3 L598.0 372.3 L606.0 372.3 L614.0 372.2 L622.0 372.1 L630.0 371.9 L638.0 371.7 L646.0 371.5 L654.0 371.2 L662.0 370.9 L670.0 370.6 L678.0 370.3 L686.0 370.0 L694.0 369.7 L702.0 369.4 L710.0 369.1 L718.0 368.8 L726.0 368.5 L734.0 368.3 L742.0 368.1 L750.0 367.9 L758.0 367.8 L766.0 367.7 L774.0 367.7 L782.0 367.7 L790.0 367.7 L798.0 367.8 L806.0 367.9 L814.0 368.1 L822.0 368.3 L830.0 368.5 L838.0 368.8 L846.0 369.1 L854.0 369.4 L862.0 369.7 L870.0 370.0 L878.0 370.3 L886.0 370.6 L894.0 370.9 L902.0 371.2 L910.0 371.5 L918.0 371.7 L926.0 371.9 L934.0 372.1 L942.0 372.2 L950.0 372.3 L958.0 372.3 L966.0 372.3 L974.0 372.3 L982.0 372.2 L990.0 372.1 L998.0 371.9 L1006.0 371.7" fill="none" stroke="#151217" stroke-width="2.4" stroke-linejoin="round" stroke-linecap="round" stroke-dasharray="16 12" opacity=".75"/><path d="M-10.0 400.5 L-2.0 400.9 L6.0 401.4 L14.0 401.9 L22.0 402.5 L30.0 403.0 L38.0 403.7 L46.0 404.3 L54.0 404.9 L62.0 405.5 L70.0 406.0 L78.0 406.5 L86.0 407.0 L94.0 407.4 L102.0 407.8 L110.0 408.0 L118.0 408.2 L126.0 408.3 L134.0 408.4 L142.0 408.3 L150.0 408.1 L158.0 407.9 L166.0 407.6 L174.0 407.2 L182.0 406.8 L190.0 406.3 L198.0 405.8 L206.0 405.2 L214.0 404.6 L222.0 404.0 L230.0 403.4 L238.0 402.8 L246.0 402.2 L254.0 401.7 L262.0 401.2 L270.0 400.7 L278.0 400.4 L286.0 400.1 L294.0 399.8 L302.0 399.7 L310.0 399.6 L318.0 399.7 L326.0 399.8 L334.0 400.0 L342.0 400.3 L350.0 400.6 L358.0 401.0 L366.0 401.5 L374.0 402.0 L382.0 402.6 L390.0 403.2 L398.0 403.8 L406.0 404.4 L414.0 405.0 L422.0 405.6 L430.0 406.1 L438.0 406.6 L446.0 407.1 L454.0 407.5 L462.0 407.8 L470.0 408.1 L478.0 408.3 L486.0 408.3 L494.0 408.3 L502.0 408.3 L510.0 408.1 L518.0 407.9 L526.0 407.5 L534.0 407.1 L542.0 406.7 L550.0 406.2 L558.0 405.6 L566.0 405.0 L574.0 404.4 L582.0 403.8 L590.0 403.2 L598.0 402.6 L606.0 402.1 L614.0 401.5 L622.0 401.1 L630.0 400.6 L638.0 400.3 L646.0 400.0 L654.0 399.8 L662.0 399.7 L670.0 399.6 L678.0 399.7 L686.0 399.8 L694.0 400.0 L702.0 400.3 L710.0 400.7 L718.0 401.1 L726.0 401.6 L734.0 402.2 L742.0 402.7 L750.0 403.3 L758.0 403.9 L766.0 404.5 L774.0 405.1 L782.0 405.7 L790.0 406.3 L798.0 406.8 L806.0 407.2 L814.0 407.6 L822.0 407.9 L830.0 408.1 L838.0 408.3 L846.0 408.4 L854.0 408.3 L862.0 408.2 L870.0 408.0 L878.0 407.8 L886.0 407.4 L894.0 407.0 L902.0 406.6 L910.0 406.1 L918.0 405.5 L926.0 404.9 L934.0 404.3 L942.0 403.7 L950.0 403.1 L958.0 402.5 L966.0 401.9 L974.0 401.4 L982.0 401.0 L990.0 400.6 L998.0 400.2 L1006.0 400.0" fill="none" stroke="#151217" stroke-width="2.4" stroke-linejoin="round" stroke-linecap="round"  opacity=".75"/><path d="M-10.0 439.7 L-2.0 440.7 L6.0 441.6 L14.0 442.5 L22.0 443.4 L30.0 444.1 L38.0 444.7 L46.0 445.2 L54.0 445.5 L62.0 445.7 L70.0 445.8 L78.0 445.7 L86.0 445.4 L94.0 445.1 L102.0 444.6 L110.0 443.9 L118.0 443.2 L126.0 442.4 L134.0 441.5 L142.0 440.5 L150.0 439.4 L158.0 438.4 L166.0 437.3 L174.0 436.3 L182.0 435.3 L190.0 434.3 L198.0 433.4 L206.0 432.6 L214.0 431.9 L222.0 431.3 L230.0 430.8 L238.0 430.5 L246.0 430.3 L254.0 430.2 L262.0 430.3 L270.0 430.6 L278.0 431.0 L286.0 431.5 L294.0 432.1 L302.0 432.8 L310.0 433.7 L318.0 434.6 L326.0 435.6 L334.0 436.6 L342.0 437.7 L350.0 438.7 L358.0 439.8 L366.0 440.8 L374.0 441.8 L382.0 442.7 L390.0 443.5 L398.0 444.2 L406.0 444.7 L414.0 445.2 L422.0 445.5 L430.0 445.7 L438.0 445.8 L446.0 445.7 L454.0 445.4 L462.0 445.0 L470.0 444.5 L478.0 443.9 L486.0 443.1 L494.0 442.3 L502.0 441.3 L510.0 440.4 L518.0 439.3 L526.0 438.3 L534.0 437.2 L542.0 436.2 L550.0 435.1 L558.0 434.2 L566.0 433.3 L574.0 432.5 L582.0 431.8 L590.0 431.2 L598.0 430.8 L606.0 430.5 L614.0 430.3 L622.0 430.2 L630.0 430.4 L638.0 430.6 L646.0 431.0 L654.0 431.5 L662.0 432.2 L670.0 432.9 L678.0 433.8 L686.0 434.7 L694.0 435.7 L702.0 436.7 L710.0 437.8 L718.0 438.9 L726.0 439.9 L734.0 440.9 L742.0 441.9 L750.0 442.8 L758.0 443.5 L766.0 444.2 L774.0 444.8 L782.0 445.3 L790.0 445.6 L798.0 445.7 L806.0 445.8 L814.0 445.6 L822.0 445.4 L830.0 445.0 L838.0 444.4 L846.0 443.8 L854.0 443.0 L862.0 442.2 L870.0 441.2 L878.0 440.2 L886.0 439.2 L894.0 438.1 L902.0 437.1 L910.0 436.0 L918.0 435.0 L926.0 434.1 L934.0 433.2 L942.0 432.4 L950.0 431.7 L958.0 431.2 L966.0 430.7 L974.0 430.4 L982.0 430.3 L990.0 430.2 L998.0 430.4 L1006.0 430.6" fill="none" stroke="#151217" stroke-width="2.4" stroke-linejoin="round" stroke-linecap="round"  opacity=".75"/><path d="M-10.0 465.6 L-2.0 464.3 L6.0 463.1 L14.0 462.1 L22.0 461.3 L30.0 460.8 L38.0 460.4 L46.0 460.3 L54.0 460.4 L62.0 460.7 L70.0 461.3 L78.0 462.0 L86.0 463.0 L94.0 464.2 L102.0 465.5 L110.0 466.9 L118.0 468.4 L126.0 470.0 L134.0 471.7 L142.0 473.3 L150.0 474.9 L158.0 476.5 L166.0 478.0 L174.0 479.3 L182.0 480.5 L190.0 481.6 L198.0 482.4 L206.0 483.1 L214.0 483.5 L222.0 483.7 L230.0 483.7 L238.0 483.4 L246.0 482.9 L254.0 482.2 L262.0 481.3 L270.0 480.2 L278.0 478.9 L286.0 477.5 L294.0 476.0 L302.0 474.5 L310.0 472.8 L318.0 471.2 L326.0 469.5 L334.0 468.0 L342.0 466.5 L350.0 465.1 L358.0 463.8 L366.0 462.7 L374.0 461.8 L382.0 461.1 L390.0 460.6 L398.0 460.3 L406.0 460.3 L414.0 460.5 L422.0 460.9 L430.0 461.6 L438.0 462.4 L446.0 463.5 L454.0 464.7 L462.0 466.0 L470.0 467.5 L478.0 469.1 L486.0 470.7 L494.0 472.3 L502.0 474.0 L510.0 475.6 L518.0 477.1 L526.0 478.5 L534.0 479.8 L542.0 481.0 L550.0 482.0 L558.0 482.7 L566.0 483.3 L574.0 483.6 L582.0 483.7 L590.0 483.6 L598.0 483.2 L606.0 482.7 L614.0 481.9 L622.0 480.9 L630.0 479.7 L638.0 478.4 L646.0 477.0 L654.0 475.4 L662.0 473.8 L670.0 472.2 L678.0 470.5 L686.0 468.9 L694.0 467.3 L702.0 465.9 L710.0 464.5 L718.0 463.3 L726.0 462.3 L734.0 461.5 L742.0 460.9 L750.0 460.5 L758.0 460.3 L766.0 460.3 L774.0 460.6 L782.0 461.1 L790.0 461.9 L798.0 462.8 L806.0 463.9 L814.0 465.2 L822.0 466.6 L830.0 468.1 L838.0 469.7 L846.0 471.3 L854.0 473.0 L862.0 474.6 L870.0 476.2 L878.0 477.7 L886.0 479.1 L894.0 480.3 L902.0 481.4 L910.0 482.3 L918.0 483.0 L926.0 483.4 L934.0 483.7 L942.0 483.7 L950.0 483.5 L958.0 483.0 L966.0 482.4 L974.0 481.5 L982.0 480.4 L990.0 479.2 L998.0 477.8 L1006.0 476.4" fill="none" stroke="#151217" stroke-width="2.4" stroke-linejoin="round" stroke-linecap="round" stroke-dasharray="16 12" opacity=".75"/><path d="M-10.0 518.3 L-2.0 516.3 L6.0 513.9 L14.0 511.2 L22.0 508.3 L30.0 505.3 L38.0 502.3 L46.0 499.5 L54.0 496.9 L62.0 494.7 L70.0 492.9 L78.0 491.6 L86.0 490.9 L94.0 490.8 L102.0 491.2 L110.0 492.3 L118.0 493.9 L126.0 495.9 L134.0 498.4 L142.0 501.1 L150.0 504.0 L158.0 507.0 L166.0 510.0 L174.0 512.8 L182.0 515.4 L190.0 517.5 L198.0 519.3 L206.0 520.5 L214.0 521.1 L222.0 521.2 L230.0 520.7 L238.0 519.6 L246.0 517.9 L254.0 515.9 L262.0 513.4 L270.0 510.6 L278.0 507.7 L286.0 504.7 L294.0 501.7 L302.0 498.9 L310.0 496.4 L318.0 494.3 L326.0 492.6 L334.0 491.4 L342.0 490.8 L350.0 490.8 L358.0 491.4 L366.0 492.6 L374.0 494.2 L382.0 496.4 L390.0 498.9 L398.0 501.7 L406.0 504.6 L414.0 507.6 L422.0 510.6 L430.0 513.4 L438.0 515.8 L446.0 517.9 L454.0 519.6 L462.0 520.7 L470.0 521.2 L478.0 521.1 L486.0 520.5 L494.0 519.3 L502.0 517.6 L510.0 515.4 L518.0 512.8 L526.0 510.0 L534.0 507.1 L542.0 504.0 L550.0 501.1 L558.0 498.4 L566.0 495.9 L574.0 493.9 L582.0 492.3 L590.0 491.2 L598.0 490.8 L606.0 490.9 L614.0 491.6 L622.0 492.9 L630.0 494.6 L638.0 496.9 L646.0 499.4 L654.0 502.3 L662.0 505.3 L670.0 508.3 L678.0 511.2 L686.0 513.9 L694.0 516.3 L702.0 518.3 L710.0 519.8 L718.0 520.8 L726.0 521.2 L734.0 521.1 L742.0 520.3 L750.0 519.0 L758.0 517.1 L766.0 514.9 L774.0 512.3 L782.0 509.4 L790.0 506.4 L798.0 503.4 L806.0 500.5 L814.0 497.8 L822.0 495.5 L830.0 493.5 L838.0 492.0 L846.0 491.1 L854.0 490.7 L862.0 491.0 L870.0 491.8 L878.0 493.2 L886.0 495.1 L894.0 497.4 L902.0 500.0 L910.0 502.9 L918.0 505.9 L926.0 508.9 L934.0 511.7 L942.0 514.4 L950.0 516.7 L958.0 518.7 L966.0 520.1 L974.0 521.0 L982.0 521.3 L990.0 521.0 L998.0 520.1 L1006.0 518.6" fill="none" stroke="#151217" stroke-width="2.4" stroke-linejoin="round" stroke-linecap="round"  opacity=".75"/><path d="M-10.0 522.7 L-2.0 522.5 L6.0 522.7 L14.0 523.4 L22.0 524.4 L30.0 525.8 L38.0 527.6 L46.0 529.6 L54.0 532.0 L62.0 534.5 L70.0 537.1 L78.0 539.8 L86.0 542.5 L94.0 545.1 L102.0 547.7 L110.0 550.0 L118.0 552.1 L126.0 553.9 L134.0 555.4 L142.0 556.5 L150.0 557.2 L158.0 557.5 L166.0 557.4 L174.0 556.8 L182.0 555.9 L190.0 554.5 L198.0 552.9 L206.0 550.9 L214.0 548.6 L222.0 546.2 L230.0 543.6 L238.0 540.9 L246.0 538.1 L254.0 535.5 L262.0 532.9 L270.0 530.5 L278.0 528.4 L286.0 526.5 L294.0 524.9 L302.0 523.7 L310.0 522.9 L318.0 522.5 L326.0 522.6 L334.0 523.0 L342.0 523.9 L350.0 525.1 L358.0 526.7 L366.0 528.6 L374.0 530.8 L382.0 533.2 L390.0 535.8 L398.0 538.5 L406.0 541.2 L414.0 543.9 L422.0 546.5 L430.0 548.9 L438.0 551.1 L446.0 553.1 L454.0 554.7 L462.0 556.0 L470.0 556.9 L478.0 557.4 L486.0 557.5 L494.0 557.1 L502.0 556.4 L510.0 555.2 L518.0 553.7 L526.0 551.9 L534.0 549.7 L542.0 547.4 L550.0 544.8 L558.0 542.2 L566.0 539.4 L574.0 536.8 L582.0 534.1 L590.0 531.7 L598.0 529.4 L606.0 527.4 L614.0 525.6 L622.0 524.3 L630.0 523.3 L638.0 522.7 L646.0 522.5 L654.0 522.7 L662.0 523.4 L670.0 524.5 L678.0 525.9 L686.0 527.7 L694.0 529.7 L702.0 532.0 L710.0 534.6 L718.0 537.2 L726.0 539.9 L734.0 542.6 L742.0 545.2 L750.0 547.8 L758.0 550.1 L766.0 552.2 L774.0 554.0 L782.0 555.4 L790.0 556.5 L798.0 557.2 L806.0 557.5 L814.0 557.4 L822.0 556.8 L830.0 555.8 L838.0 554.5 L846.0 552.8 L854.0 550.8 L862.0 548.5 L870.0 546.1 L878.0 543.4 L886.0 540.8 L894.0 538.0 L902.0 535.4 L910.0 532.8 L918.0 530.4 L926.0 528.3 L934.0 526.4 L942.0 524.9 L950.0 523.7 L958.0 522.9 L966.0 522.5 L974.0 522.6 L982.0 523.0 L990.0 523.9 L998.0 525.2 L1006.0 526.8" fill="none" stroke="#151217" stroke-width="2.4" stroke-linejoin="round" stroke-linecap="round"  opacity=".75"/><path d="M-10.0 556.8 L-2.0 556.2 L6.0 556.2 L14.0 556.9 L22.0 558.4 L30.0 560.4 L38.0 563.0 L46.0 566.0 L54.0 569.4 L62.0 572.9 L70.0 576.5 L78.0 579.9 L86.0 583.2 L94.0 586.1 L102.0 588.4 L110.0 590.3 L118.0 591.4 L126.0 591.9 L134.0 591.7 L142.0 590.7 L150.0 589.1 L158.0 586.9 L166.0 584.2 L174.0 581.1 L182.0 577.7 L190.0 574.1 L198.0 570.5 L206.0 567.1 L214.0 564.0 L222.0 561.2 L230.0 559.0 L238.0 557.3 L246.0 556.4 L254.0 556.1 L262.0 556.5 L270.0 557.7 L278.0 559.4 L286.0 561.8 L294.0 564.6 L302.0 567.9 L310.0 571.3 L318.0 574.9 L326.0 578.4 L334.0 581.8 L342.0 584.8 L350.0 587.5 L358.0 589.5 L366.0 591.0 L374.0 591.8 L382.0 591.9 L390.0 591.2 L398.0 589.9 L406.0 588.0 L414.0 585.5 L422.0 582.5 L430.0 579.2 L438.0 575.7 L446.0 572.1 L454.0 568.6 L462.0 565.3 L470.0 562.4 L478.0 559.9 L486.0 558.0 L494.0 556.7 L502.0 556.1 L510.0 556.2 L518.0 557.1 L526.0 558.6 L534.0 560.7 L542.0 563.3 L550.0 566.4 L558.0 569.8 L566.0 573.3 L574.0 576.9 L582.0 580.3 L590.0 583.5 L598.0 586.4 L606.0 588.7 L614.0 590.4 L622.0 591.5 L630.0 591.9 L638.0 591.6 L646.0 590.6 L654.0 588.9 L662.0 586.6 L670.0 583.9 L678.0 580.7 L686.0 577.3 L694.0 573.7 L702.0 570.1 L710.0 566.7 L718.0 563.6 L726.0 560.9 L734.0 558.8 L742.0 557.2 L750.0 556.3 L758.0 556.1 L766.0 556.6 L774.0 557.8 L782.0 559.7 L790.0 562.1 L798.0 565.0 L806.0 568.3 L814.0 571.7 L822.0 575.3 L830.0 578.8 L838.0 582.2 L846.0 585.2 L854.0 587.7 L862.0 589.7 L870.0 591.1 L878.0 591.8 L886.0 591.8 L894.0 591.1 L902.0 589.7 L910.0 587.7 L918.0 585.1 L926.0 582.1 L934.0 578.8 L942.0 575.3 L950.0 571.7 L958.0 568.2 L966.0 565.0 L974.0 562.1 L982.0 559.7 L990.0 557.8 L998.0 556.6 L1006.0 556.1" fill="none" stroke="#151217" stroke-width="2.4" stroke-linejoin="round" stroke-linecap="round" stroke-dasharray="16 12" opacity=".75"/><path d="M-10.0 617.5 L-2.0 619.4 L6.0 621.0 L14.0 622.3 L22.0 623.3 L30.0 624.0 L38.0 624.4 L46.0 624.3 L54.0 623.9 L62.0 623.2 L70.0 622.1 L78.0 620.8 L86.0 619.1 L94.0 617.2 L102.0 615.1 L110.0 612.9 L118.0 610.5 L126.0 608.1 L134.0 605.7 L142.0 603.3 L150.0 601.1 L158.0 598.9 L166.0 597.0 L174.0 595.4 L182.0 594.0 L190.0 592.9 L198.0 592.1 L206.0 591.7 L214.0 591.6 L222.0 591.9 L230.0 592.6 L238.0 593.6 L246.0 594.9 L254.0 596.5 L262.0 598.3 L270.0 600.4 L278.0 602.6 L286.0 604.9 L294.0 607.3 L302.0 609.7 L310.0 612.1 L318.0 614.4 L326.0 616.6 L334.0 618.5 L342.0 620.3 L350.0 621.7 L358.0 622.9 L366.0 623.7 L374.0 624.2 L382.0 624.4 L390.0 624.2 L398.0 623.6 L406.0 622.7 L414.0 621.5 L422.0 619.9 L430.0 618.2 L438.0 616.2 L446.0 614.0 L454.0 611.7 L462.0 609.3 L470.0 606.8 L478.0 604.5 L486.0 602.1 L494.0 599.9 L502.0 597.9 L510.0 596.1 L518.0 594.6 L526.0 593.4 L534.0 592.4 L542.0 591.8 L550.0 591.6 L558.0 591.7 L566.0 592.2 L574.0 593.1 L582.0 594.2 L590.0 595.7 L598.0 597.4 L606.0 599.3 L614.0 601.5 L622.0 603.8 L630.0 606.1 L638.0 608.6 L646.0 611.0 L654.0 613.3 L662.0 615.5 L670.0 617.6 L678.0 619.5 L686.0 621.1 L694.0 622.4 L702.0 623.4 L710.0 624.0 L718.0 624.4 L726.0 624.3 L734.0 623.9 L742.0 623.2 L750.0 622.1 L758.0 620.7 L766.0 619.1 L774.0 617.2 L782.0 615.0 L790.0 612.8 L798.0 610.4 L806.0 608.0 L814.0 605.6 L822.0 603.2 L830.0 601.0 L838.0 598.9 L846.0 597.0 L854.0 595.3 L862.0 593.9 L870.0 592.8 L878.0 592.1 L886.0 591.7 L894.0 591.6 L902.0 591.9 L910.0 592.6 L918.0 593.6 L926.0 594.9 L934.0 596.5 L942.0 598.4 L950.0 600.4 L958.0 602.7 L966.0 605.0 L974.0 607.4 L982.0 609.8 L990.0 612.2 L998.0 614.5 L1006.0 616.6" fill="none" stroke="#151217" stroke-width="2.4" stroke-linejoin="round" stroke-linecap="round"  opacity=".75"/><path d="M-10.0 641.3 L-2.0 643.2 L6.0 644.9 L14.0 646.7 L22.0 648.3 L30.0 649.9 L38.0 651.3 L46.0 652.5 L54.0 653.5 L62.0 654.3 L70.0 654.9 L78.0 655.2 L86.0 655.3 L94.0 655.1 L102.0 654.7 L110.0 654.1 L118.0 653.2 L126.0 652.2 L134.0 650.9 L142.0 649.5 L150.0 647.9 L158.0 646.3 L166.0 644.5 L174.0 642.7 L182.0 640.9 L190.0 639.1 L198.0 637.4 L206.0 635.7 L214.0 634.2 L222.0 632.8 L230.0 631.6 L238.0 630.5 L246.0 629.7 L254.0 629.1 L262.0 628.8 L270.0 628.7 L278.0 628.9 L286.0 629.2 L294.0 629.9 L302.0 630.7 L310.0 631.8 L318.0 633.0 L326.0 634.5 L334.0 636.0 L342.0 637.7 L350.0 639.4 L358.0 641.2 L366.0 643.1 L374.0 644.9 L382.0 646.6 L390.0 648.2 L398.0 649.8 L406.0 651.2 L414.0 652.4 L422.0 653.4 L430.0 654.2 L438.0 654.8 L446.0 655.2 L454.0 655.3 L462.0 655.2 L470.0 654.8 L478.0 654.1 L486.0 653.3 L494.0 652.2 L502.0 651.0 L510.0 649.6 L518.0 648.0 L526.0 646.4 L534.0 644.6 L542.0 642.8 L550.0 641.0 L558.0 639.2 L566.0 637.5 L574.0 635.8 L582.0 634.3 L590.0 632.9 L598.0 631.6 L606.0 630.6 L614.0 629.8 L622.0 629.2 L630.0 628.8 L638.0 628.7 L646.0 628.8 L654.0 629.2 L662.0 629.8 L670.0 630.7 L678.0 631.7 L686.0 633.0 L694.0 634.4 L702.0 635.9 L710.0 637.6 L718.0 639.3 L726.0 641.1 L734.0 643.0 L742.0 644.8 L750.0 646.5 L758.0 648.2 L766.0 649.7 L774.0 651.1 L782.0 652.3 L790.0 653.4 L798.0 654.2 L806.0 654.8 L814.0 655.2 L822.0 655.3 L830.0 655.2 L838.0 654.8 L846.0 654.2 L854.0 653.4 L862.0 652.3 L870.0 651.1 L878.0 649.7 L886.0 648.1 L894.0 646.4 L902.0 644.7 L910.0 642.9 L918.0 641.1 L926.0 639.3 L934.0 637.6 L942.0 635.9 L950.0 634.3 L958.0 632.9 L966.0 631.7 L974.0 630.6 L982.0 629.8 L990.0 629.2 L998.0 628.8 L1006.0 628.7" fill="none" stroke="#151217" stroke-width="2.4" stroke-linejoin="round" stroke-linecap="round"  opacity=".75"/><path d="M-10.0 681.4 L-2.0 682.5 L6.0 683.5 L14.0 684.3 L22.0 684.9 L30.0 685.3 L38.0 685.4 L46.0 685.3 L54.0 684.9 L62.0 684.3 L70.0 683.5 L78.0 682.6 L86.0 681.4 L94.0 680.1 L102.0 678.7 L110.0 677.2 L118.0 675.7 L126.0 674.2 L134.0 672.8 L142.0 671.4 L150.0 670.2 L158.0 669.1 L166.0 668.1 L174.0 667.4 L182.0 666.9 L190.0 666.7 L198.0 666.6 L206.0 666.8 L214.0 667.3 L222.0 667.9 L230.0 668.8 L238.0 669.9 L246.0 671.1 L254.0 672.4 L262.0 673.8 L270.0 675.3 L278.0 676.8 L286.0 678.3 L294.0 679.7 L302.0 681.0 L310.0 682.2 L318.0 683.3 L326.0 684.1 L334.0 684.8 L342.0 685.2 L350.0 685.4 L358.0 685.3 L366.0 685.0 L374.0 684.5 L382.0 683.8 L390.0 682.8 L398.0 681.7 L406.0 680.5 L414.0 679.1 L422.0 677.6 L430.0 676.1 L438.0 674.6 L446.0 673.2 L454.0 671.8 L462.0 670.5 L470.0 669.4 L478.0 668.4 L486.0 667.6 L494.0 667.0 L502.0 666.7 L510.0 666.6 L518.0 666.7 L526.0 667.1 L534.0 667.7 L542.0 668.5 L550.0 669.5 L558.0 670.7 L566.0 672.0 L574.0 673.4 L582.0 674.9 L590.0 676.4 L598.0 677.9 L606.0 679.3 L614.0 680.7 L622.0 681.9 L630.0 683.0 L638.0 683.9 L646.0 684.6 L654.0 685.1 L662.0 685.4 L670.0 685.4 L678.0 685.1 L686.0 684.7 L694.0 684.0 L702.0 683.1 L710.0 682.0 L718.0 680.8 L726.0 679.5 L734.0 678.0 L742.0 676.5 L750.0 675.0 L758.0 673.6 L766.0 672.2 L774.0 670.8 L782.0 669.7 L790.0 668.6 L798.0 667.8 L806.0 667.2 L814.0 666.8 L822.0 666.6 L830.0 666.7 L838.0 667.0 L846.0 667.5 L854.0 668.3 L862.0 669.3 L870.0 670.4 L878.0 671.7 L886.0 673.0 L894.0 674.5 L902.0 676.0 L910.0 677.5 L918.0 679.0 L926.0 680.3 L934.0 681.6 L942.0 682.7 L950.0 683.7 L958.0 684.5 L966.0 685.0 L974.0 685.3 L982.0 685.4 L990.0 685.2 L998.0 684.8 L1006.0 684.2" fill="none" stroke="#151217" stroke-width="2.4" stroke-linejoin="round" stroke-linecap="round" stroke-dasharray="16 12" opacity=".75"/><path d="M-10.0 714.3 L-2.0 713.5 L6.0 712.6 L14.0 711.7 L22.0 710.7 L30.0 709.6 L38.0 708.6 L46.0 707.6 L54.0 706.7 L62.0 705.9 L70.0 705.3 L78.0 704.8 L86.0 704.5 L94.0 704.4 L102.0 704.4 L110.0 704.7 L118.0 705.2 L126.0 705.8 L134.0 706.5 L142.0 707.4 L150.0 708.4 L158.0 709.4 L166.0 710.5 L174.0 711.5 L182.0 712.5 L190.0 713.4 L198.0 714.1 L206.0 714.8 L214.0 715.3 L222.0 715.5 L230.0 715.6 L238.0 715.6 L246.0 715.3 L254.0 714.8 L262.0 714.2 L270.0 713.4 L278.0 712.5 L286.0 711.5 L294.0 710.5 L302.0 709.5 L310.0 708.4 L318.0 707.5 L326.0 706.6 L334.0 705.8 L342.0 705.2 L350.0 704.7 L358.0 704.4 L366.0 704.4 L374.0 704.5 L382.0 704.8 L390.0 705.2 L398.0 705.9 L406.0 706.7 L414.0 707.6 L422.0 708.5 L430.0 709.6 L438.0 710.6 L446.0 711.6 L454.0 712.6 L462.0 713.5 L470.0 714.3 L478.0 714.9 L486.0 715.3 L494.0 715.6 L502.0 715.6 L510.0 715.5 L518.0 715.2 L526.0 714.7 L534.0 714.1 L542.0 713.3 L550.0 712.4 L558.0 711.4 L566.0 710.3 L574.0 709.3 L582.0 708.3 L590.0 707.3 L598.0 706.4 L606.0 705.7 L614.0 705.1 L622.0 704.7 L630.0 704.4 L638.0 704.4 L646.0 704.5 L654.0 704.8 L662.0 705.3 L670.0 706.0 L678.0 706.8 L686.0 707.7 L694.0 708.7 L702.0 709.7 L710.0 710.8 L718.0 711.8 L726.0 712.8 L734.0 713.6 L742.0 714.4 L750.0 714.9 L758.0 715.4 L766.0 715.6 L774.0 715.6 L782.0 715.5 L790.0 715.1 L798.0 714.6 L806.0 714.0 L814.0 713.1 L822.0 712.2 L830.0 711.2 L838.0 710.2 L846.0 709.1 L854.0 708.1 L862.0 707.2 L870.0 706.3 L878.0 705.6 L886.0 705.0 L894.0 704.6 L902.0 704.4 L910.0 704.4 L918.0 704.5 L926.0 704.9 L934.0 705.4 L942.0 706.1 L950.0 706.9 L958.0 707.9 L966.0 708.9 L974.0 709.9 L982.0 710.9 L990.0 712.0 L998.0 712.9 L1006.0 713.7" fill="none" stroke="#151217" stroke-width="2.4" stroke-linejoin="round" stroke-linecap="round"  opacity=".75"/><path d="M-10.0 746.2 L-2.0 746.5 L6.0 746.7 L14.0 746.8 L22.0 746.9 L30.0 747.0 L38.0 746.9 L46.0 746.8 L54.0 746.7 L62.0 746.5 L70.0 746.2 L78.0 745.9 L86.0 745.5 L94.0 745.1 L102.0 744.7 L110.0 744.3 L118.0 743.9 L126.0 743.4 L134.0 743.0 L142.0 742.6 L150.0 742.3 L158.0 741.9 L166.0 741.6 L174.0 741.4 L182.0 741.2 L190.0 741.1 L198.0 741.0 L206.0 741.0 L214.0 741.1 L222.0 741.3 L230.0 741.4 L238.0 741.7 L246.0 742.0 L254.0 742.3 L262.0 742.7 L270.0 743.1 L278.0 743.5 L286.0 744.0 L294.0 744.4 L302.0 744.8 L310.0 745.2 L318.0 745.6 L326.0 746.0 L334.0 746.3 L342.0 746.5 L350.0 746.7 L358.0 746.9 L366.0 746.9 L374.0 747.0 L382.0 746.9 L390.0 746.8 L398.0 746.6 L406.0 746.4 L414.0 746.1 L422.0 745.8 L430.0 745.5 L438.0 745.1 L446.0 744.7 L454.0 744.2 L462.0 743.8 L470.0 743.4 L478.0 742.9 L486.0 742.5 L494.0 742.2 L502.0 741.9 L510.0 741.6 L518.0 741.4 L526.0 741.2 L534.0 741.1 L542.0 741.0 L550.0 741.1 L558.0 741.1 L566.0 741.3 L574.0 741.5 L582.0 741.7 L590.0 742.0 L598.0 742.4 L606.0 742.8 L614.0 743.2 L622.0 743.6 L630.0 744.0 L638.0 744.5 L646.0 744.9 L654.0 745.3 L662.0 745.7 L670.0 746.0 L678.0 746.3 L686.0 746.6 L694.0 746.7 L702.0 746.9 L710.0 747.0 L718.0 747.0 L726.0 746.9 L734.0 746.8 L742.0 746.6 L750.0 746.4 L758.0 746.1 L766.0 745.8 L774.0 745.4 L782.0 745.0 L790.0 744.6 L798.0 744.1 L806.0 743.7 L814.0 743.3 L822.0 742.9 L830.0 742.5 L838.0 742.1 L846.0 741.8 L854.0 741.5 L862.0 741.3 L870.0 741.2 L878.0 741.1 L886.0 741.0 L894.0 741.1 L902.0 741.2 L910.0 741.3 L918.0 741.5 L926.0 741.8 L934.0 742.1 L942.0 742.5 L950.0 742.8 L958.0 743.3 L966.0 743.7 L974.0 744.1 L982.0 744.6 L990.0 745.0 L998.0 745.4 L1006.0 745.7" fill="none" stroke="#151217" stroke-width="2.4" stroke-linejoin="round" stroke-linecap="round"  opacity=".75"/><path d="M-10.0 776.3 L-2.0 776.5 L6.0 776.7 L14.0 777.0 L22.0 777.3 L30.0 777.5 L38.0 777.8 L46.0 778.1 L54.0 778.4 L62.0 778.7 L70.0 779.0 L78.0 779.2 L86.0 779.5 L94.0 779.7 L102.0 779.8 L110.0 779.9 L118.0 780.0 L126.0 780.0 L134.0 780.0 L142.0 779.9 L150.0 779.8 L158.0 779.6 L166.0 779.5 L174.0 779.2 L182.0 779.0 L190.0 778.7 L198.0 778.4 L206.0 778.1 L214.0 777.8 L222.0 777.5 L230.0 777.3 L238.0 777.0 L246.0 776.7 L254.0 776.5 L262.0 776.3 L270.0 776.2 L278.0 776.1 L286.0 776.0 L294.0 776.0 L302.0 776.0 L310.0 776.1 L318.0 776.2 L326.0 776.4 L334.0 776.6 L342.0 776.8 L350.0 777.0 L358.0 777.3 L366.0 777.6 L374.0 777.9 L382.0 778.2 L390.0 778.5 L398.0 778.8 L406.0 779.0 L414.0 779.3 L422.0 779.5 L430.0 779.7 L438.0 779.8 L446.0 779.9 L454.0 780.0 L462.0 780.0 L470.0 780.0 L478.0 779.9 L486.0 779.8 L494.0 779.6 L502.0 779.4 L510.0 779.2 L518.0 778.9 L526.0 778.7 L534.0 778.4 L542.0 778.1 L550.0 777.8 L558.0 777.5 L566.0 777.2 L574.0 776.9 L582.0 776.7 L590.0 776.5 L598.0 776.3 L606.0 776.2 L614.0 776.1 L622.0 776.0 L630.0 776.0 L638.0 776.0 L646.0 776.1 L654.0 776.2 L662.0 776.4 L670.0 776.6 L678.0 776.8 L686.0 777.1 L694.0 777.4 L702.0 777.7 L710.0 778.0 L718.0 778.3 L726.0 778.6 L734.0 778.8 L742.0 779.1 L750.0 779.3 L758.0 779.5 L766.0 779.7 L774.0 779.8 L782.0 779.9 L790.0 780.0 L798.0 780.0 L806.0 780.0 L814.0 779.9 L822.0 779.7 L830.0 779.6 L838.0 779.4 L846.0 779.1 L854.0 778.9 L862.0 778.6 L870.0 778.3 L878.0 778.0 L886.0 777.7 L894.0 777.4 L902.0 777.1 L910.0 776.9 L918.0 776.6 L926.0 776.4 L934.0 776.3 L942.0 776.1 L950.0 776.1 L958.0 776.0 L966.0 776.0 L974.0 776.1 L982.0 776.1 L990.0 776.3 L998.0 776.4 L1006.0 776.6" fill="none" stroke="#151217" stroke-width="2.4" stroke-linejoin="round" stroke-linecap="round" stroke-dasharray="16 12" opacity=".75"/><path d="M-10.0 811.2 L-2.0 810.8 L6.0 810.4 L14.0 810.0 L22.0 809.7 L30.0 809.4 L38.0 809.2 L46.0 809.1 L54.0 809.0 L62.0 809.0 L70.0 809.1 L78.0 809.2 L86.0 809.4 L94.0 809.7 L102.0 810.0 L110.0 810.3 L118.0 810.7 L126.0 811.1 L134.0 811.6 L142.0 812.0 L150.0 812.5 L158.0 812.9 L166.0 813.3 L174.0 813.7 L182.0 814.1 L190.0 814.4 L198.0 814.6 L206.0 814.8 L214.0 814.9 L222.0 815.0 L230.0 815.0 L238.0 814.9 L246.0 814.8 L254.0 814.5 L262.0 814.3 L270.0 813.9 L278.0 813.6 L286.0 813.2 L294.0 812.8 L302.0 812.3 L310.0 811.9 L318.0 811.4 L326.0 811.0 L334.0 810.6 L342.0 810.2 L350.0 809.8 L358.0 809.5 L366.0 809.3 L374.0 809.1 L382.0 809.0 L390.0 809.0 L398.0 809.0 L406.0 809.1 L414.0 809.3 L422.0 809.5 L430.0 809.8 L438.0 810.1 L446.0 810.5 L454.0 810.9 L462.0 811.4 L470.0 811.8 L478.0 812.3 L486.0 812.7 L494.0 813.1 L502.0 813.6 L510.0 813.9 L518.0 814.2 L526.0 814.5 L534.0 814.7 L542.0 814.9 L550.0 815.0 L558.0 815.0 L566.0 814.9 L574.0 814.8 L582.0 814.6 L590.0 814.4 L598.0 814.1 L606.0 813.8 L614.0 813.4 L622.0 813.0 L630.0 812.5 L638.0 812.1 L646.0 811.6 L654.0 811.2 L662.0 810.7 L670.0 810.3 L678.0 810.0 L686.0 809.7 L694.0 809.4 L702.0 809.2 L710.0 809.1 L718.0 809.0 L726.0 809.0 L734.0 809.1 L742.0 809.2 L750.0 809.4 L758.0 809.7 L766.0 810.0 L774.0 810.3 L782.0 810.7 L790.0 811.2 L798.0 811.6 L806.0 812.1 L814.0 812.5 L822.0 813.0 L830.0 813.4 L838.0 813.8 L846.0 814.1 L854.0 814.4 L862.0 814.6 L870.0 814.8 L878.0 814.9 L886.0 815.0 L894.0 815.0 L902.0 814.9 L910.0 814.7 L918.0 814.5 L926.0 814.2 L934.0 813.9 L942.0 813.6 L950.0 813.1 L958.0 812.7 L966.0 812.3 L974.0 811.8 L982.0 811.4 L990.0 810.9 L998.0 810.5 L1006.0 810.1" fill="none" stroke="#151217" stroke-width="2.4" stroke-linejoin="round" stroke-linecap="round"  opacity=".75"/><path d="M-10.0 846.7 L-2.0 845.8 L6.0 844.9 L14.0 844.0 L22.0 843.1 L30.0 842.4 L38.0 841.7 L46.0 841.2 L54.0 840.7 L62.0 840.4 L70.0 840.3 L78.0 840.3 L86.0 840.5 L94.0 840.8 L102.0 841.2 L110.0 841.8 L118.0 842.5 L126.0 843.3 L134.0 844.2 L142.0 845.1 L150.0 846.0 L158.0 846.9 L166.0 847.8 L174.0 848.7 L182.0 849.5 L190.0 850.2 L198.0 850.7 L206.0 851.2 L214.0 851.5 L222.0 851.7 L230.0 851.7 L238.0 851.6 L246.0 851.3 L254.0 850.9 L262.0 850.3 L270.0 849.6 L278.0 848.9 L286.0 848.0 L294.0 847.2 L302.0 846.2 L310.0 845.3 L318.0 844.4 L326.0 843.5 L334.0 842.7 L342.0 842.0 L350.0 841.4 L358.0 840.9 L366.0 840.6 L374.0 840.3 L382.0 840.3 L390.0 840.4 L398.0 840.6 L406.0 841.0 L414.0 841.6 L422.0 842.2 L430.0 842.9 L438.0 843.8 L446.0 844.6 L454.0 845.6 L462.0 846.5 L470.0 847.4 L478.0 848.3 L486.0 849.1 L494.0 849.9 L502.0 850.5 L510.0 851.0 L518.0 851.4 L526.0 851.6 L534.0 851.7 L542.0 851.6 L550.0 851.4 L558.0 851.1 L566.0 850.6 L574.0 850.0 L582.0 849.2 L590.0 848.4 L598.0 847.6 L606.0 846.6 L614.0 845.7 L622.0 844.8 L630.0 843.9 L638.0 843.1 L646.0 842.3 L654.0 841.6 L662.0 841.1 L670.0 840.7 L678.0 840.4 L686.0 840.3 L694.0 840.3 L702.0 840.5 L710.0 840.8 L718.0 841.3 L726.0 841.9 L734.0 842.6 L742.0 843.4 L750.0 844.2 L758.0 845.1 L766.0 846.1 L774.0 847.0 L782.0 847.9 L790.0 848.8 L798.0 849.5 L806.0 850.2 L814.0 850.8 L822.0 851.2 L830.0 851.5 L838.0 851.7 L846.0 851.7 L854.0 851.5 L862.0 851.2 L870.0 850.8 L878.0 850.3 L886.0 849.6 L894.0 848.8 L902.0 848.0 L910.0 847.1 L918.0 846.1 L926.0 845.2 L934.0 844.3 L942.0 843.4 L950.0 842.6 L958.0 841.9 L966.0 841.3 L974.0 840.9 L982.0 840.5 L990.0 840.3 L998.0 840.3 L1006.0 840.4" fill="none" stroke="#151217" stroke-width="2.4" stroke-linejoin="round" stroke-linecap="round"  opacity=".75"/><path d="M-10.0 871.6 L-2.0 872.6 L6.0 873.9 L14.0 875.3 L22.0 877.0 L30.0 878.7 L38.0 880.5 L46.0 882.3 L54.0 884.0 L62.0 885.6 L70.0 886.9 L78.0 888.0 L86.0 888.8 L94.0 889.3 L102.0 889.5 L110.0 889.3 L118.0 888.8 L126.0 887.9 L134.0 886.8 L142.0 885.4 L150.0 883.9 L158.0 882.2 L166.0 880.4 L174.0 878.6 L182.0 876.9 L190.0 875.2 L198.0 873.8 L206.0 872.5 L214.0 871.6 L222.0 870.9 L230.0 870.6 L238.0 870.6 L246.0 870.9 L254.0 871.6 L262.0 872.6 L270.0 873.8 L278.0 875.3 L286.0 876.9 L294.0 878.7 L302.0 880.5 L310.0 882.2 L318.0 883.9 L326.0 885.5 L334.0 886.9 L342.0 888.0 L350.0 888.8 L358.0 889.3 L366.0 889.5 L374.0 889.3 L382.0 888.8 L390.0 888.0 L398.0 886.9 L406.0 885.5 L414.0 883.9 L422.0 882.2 L430.0 880.5 L438.0 878.7 L446.0 876.9 L454.0 875.3 L462.0 873.8 L470.0 872.6 L478.0 871.6 L486.0 870.9 L494.0 870.6 L502.0 870.6 L510.0 870.9 L518.0 871.6 L526.0 872.5 L534.0 873.8 L542.0 875.2 L550.0 876.9 L558.0 878.6 L566.0 880.4 L574.0 882.2 L582.0 883.9 L590.0 885.4 L598.0 886.8 L606.0 887.9 L614.0 888.8 L622.0 889.3 L630.0 889.5 L638.0 889.3 L646.0 888.8 L654.0 888.0 L662.0 886.9 L670.0 885.6 L678.0 884.0 L686.0 882.3 L694.0 880.5 L702.0 878.7 L710.0 877.0 L718.0 875.3 L726.0 873.9 L734.0 872.6 L742.0 871.6 L750.0 870.9 L758.0 870.6 L766.0 870.6 L774.0 870.9 L782.0 871.5 L790.0 872.5 L798.0 873.7 L806.0 875.2 L814.0 876.8 L822.0 878.5 L830.0 880.3 L838.0 882.1 L846.0 883.8 L854.0 885.4 L862.0 886.8 L870.0 887.9 L878.0 888.7 L886.0 889.3 L894.0 889.5 L902.0 889.3 L910.0 888.8 L918.0 888.0 L926.0 887.0 L934.0 885.6 L942.0 884.1 L950.0 882.4 L958.0 880.6 L966.0 878.8 L974.0 877.1 L982.0 875.4 L990.0 873.9 L998.0 872.7 L1006.0 871.7" fill="none" stroke="#151217" stroke-width="2.4" stroke-linejoin="round" stroke-linecap="round" stroke-dasharray="16 12" opacity=".75"/><path d="M-10.0 926.3 L-2.0 926.9 L6.0 927.2 L14.0 927.4 L22.0 927.2 L30.0 926.9 L38.0 926.3 L46.0 925.4 L54.0 924.4 L62.0 923.1 L70.0 921.7 L78.0 920.2 L86.0 918.5 L94.0 916.7 L102.0 914.9 L110.0 913.1 L118.0 911.3 L126.0 909.6 L134.0 907.9 L142.0 906.3 L150.0 904.9 L158.0 903.7 L166.0 902.6 L174.0 901.8 L182.0 901.1 L190.0 900.8 L198.0 900.6 L206.0 900.8 L214.0 901.1 L222.0 901.7 L230.0 902.5 L238.0 903.6 L246.0 904.8 L254.0 906.2 L262.0 907.8 L270.0 909.4 L278.0 911.2 L286.0 913.0 L294.0 914.8 L302.0 916.6 L310.0 918.4 L318.0 920.0 L326.0 921.6 L334.0 923.0 L342.0 924.3 L350.0 925.4 L358.0 926.2 L366.0 926.8 L374.0 927.2 L382.0 927.4 L390.0 927.3 L398.0 926.9 L406.0 926.3 L414.0 925.5 L422.0 924.5 L430.0 923.2 L438.0 921.8 L446.0 920.3 L454.0 918.6 L462.0 916.9 L470.0 915.1 L478.0 913.3 L486.0 911.5 L494.0 909.7 L502.0 908.0 L510.0 906.4 L518.0 905.0 L526.0 903.8 L534.0 902.7 L542.0 901.8 L550.0 901.2 L558.0 900.8 L566.0 900.6 L574.0 900.7 L582.0 901.1 L590.0 901.7 L598.0 902.5 L606.0 903.5 L614.0 904.7 L622.0 906.1 L630.0 907.6 L638.0 909.3 L646.0 911.0 L654.0 912.8 L662.0 914.7 L670.0 916.5 L678.0 918.2 L686.0 919.9 L694.0 921.5 L702.0 922.9 L710.0 924.2 L718.0 925.3 L726.0 926.1 L734.0 926.8 L742.0 927.2 L750.0 927.4 L758.0 927.3 L766.0 926.9 L774.0 926.4 L782.0 925.6 L790.0 924.6 L798.0 923.3 L806.0 922.0 L814.0 920.4 L822.0 918.8 L830.0 917.0 L838.0 915.2 L846.0 913.4 L854.0 911.6 L862.0 909.8 L870.0 908.2 L878.0 906.6 L886.0 905.1 L894.0 903.9 L902.0 902.8 L910.0 901.9 L918.0 901.2 L926.0 900.8 L934.0 900.6 L942.0 900.7 L950.0 901.0 L958.0 901.6 L966.0 902.4 L974.0 903.4 L982.0 904.6 L990.0 906.0 L998.0 907.5 L1006.0 909.2" fill="none" stroke="#151217" stroke-width="2.4" stroke-linejoin="round" stroke-linecap="round"  opacity=".75"/><path d="M-10.0 935.8 L-2.0 937.8 L6.0 940.2 L14.0 942.7 L22.0 945.5 L30.0 948.2 L38.0 951.0 L46.0 953.7 L54.0 956.3 L62.0 958.6 L70.0 960.5 L78.0 962.2 L86.0 963.4 L94.0 964.1 L102.0 964.4 L110.0 964.2 L118.0 963.6 L126.0 962.5 L134.0 961.0 L142.0 959.1 L150.0 956.8 L158.0 954.4 L166.0 951.7 L174.0 948.9 L182.0 946.1 L190.0 943.4 L198.0 940.8 L206.0 938.4 L214.0 936.3 L222.0 934.5 L230.0 933.1 L238.0 932.1 L246.0 931.6 L254.0 931.6 L262.0 932.1 L270.0 933.0 L278.0 934.4 L286.0 936.1 L294.0 938.2 L302.0 940.6 L310.0 943.2 L318.0 945.9 L326.0 948.7 L334.0 951.5 L342.0 954.2 L350.0 956.7 L358.0 958.9 L366.0 960.8 L374.0 962.4 L382.0 963.5 L390.0 964.2 L398.0 964.4 L406.0 964.2 L414.0 963.4 L422.0 962.3 L430.0 960.7 L438.0 958.7 L446.0 956.4 L454.0 953.9 L462.0 951.2 L470.0 948.5 L478.0 945.7 L486.0 942.9 L494.0 940.4 L502.0 938.0 L510.0 935.9 L518.0 934.2 L526.0 932.9 L534.0 932.0 L542.0 931.6 L550.0 931.7 L558.0 932.2 L566.0 933.2 L574.0 934.6 L582.0 936.4 L590.0 938.6 L598.0 941.0 L606.0 943.6 L614.0 946.4 L622.0 949.2 L630.0 951.9 L638.0 954.6 L646.0 957.0 L654.0 959.2 L662.0 961.1 L670.0 962.6 L678.0 963.7 L686.0 964.3 L694.0 964.4 L702.0 964.1 L710.0 963.3 L718.0 962.0 L726.0 960.4 L734.0 958.4 L742.0 956.0 L750.0 953.5 L758.0 950.8 L766.0 948.0 L774.0 945.2 L782.0 942.5 L790.0 940.0 L798.0 937.6 L806.0 935.6 L814.0 934.0 L822.0 932.7 L830.0 931.9 L838.0 931.6 L846.0 931.7 L854.0 932.3 L862.0 933.4 L870.0 934.9 L878.0 936.8 L886.0 939.0 L894.0 941.4 L902.0 944.1 L910.0 946.8 L918.0 949.6 L926.0 952.4 L934.0 955.0 L942.0 957.4 L950.0 959.6 L958.0 961.4 L966.0 962.8 L974.0 963.8 L982.0 964.3 L990.0 964.4 L998.0 964.0 L1006.0 963.1" fill="none" stroke="#151217" stroke-width="2.4" stroke-linejoin="round" stroke-linecap="round"  opacity=".75"/><path d="M-10.0 964.2 L-2.0 964.1 L6.0 964.4 L14.0 965.2 L22.0 966.3 L30.0 967.8 L38.0 969.5 L46.0 971.6 L54.0 973.9 L62.0 976.3 L70.0 978.9 L78.0 981.6 L86.0 984.3 L94.0 986.9 L102.0 989.4 L110.0 991.7 L118.0 993.9 L126.0 995.7 L134.0 997.3 L142.0 998.5 L150.0 999.4 L158.0 999.8 L166.0 999.9 L174.0 999.6 L182.0 998.9 L190.0 997.8 L198.0 996.3 L206.0 994.5 L214.0 992.5 L222.0 990.2 L230.0 987.8 L238.0 985.2 L246.0 982.5 L254.0 979.8 L262.0 977.2 L270.0 974.7 L278.0 972.4 L286.0 970.2 L294.0 968.3 L302.0 966.8 L310.0 965.5 L318.0 964.7 L326.0 964.2 L334.0 964.1 L342.0 964.4 L350.0 965.1 L358.0 966.2 L366.0 967.6 L374.0 969.4 L382.0 971.4 L390.0 973.7 L398.0 976.1 L406.0 978.7 L414.0 981.4 L422.0 984.0 L430.0 986.7 L438.0 989.2 L446.0 991.6 L454.0 993.7 L462.0 995.6 L470.0 997.2 L478.0 998.4 L486.0 999.3 L494.0 999.8 L502.0 999.9 L510.0 999.6 L518.0 998.9 L526.0 997.9 L534.0 996.4 L542.0 994.7 L550.0 992.7 L558.0 990.4 L566.0 988.0 L574.0 985.4 L582.0 982.7 L590.0 980.1 L598.0 977.4 L606.0 974.9 L614.0 972.5 L622.0 970.4 L630.0 968.5 L638.0 966.9 L646.0 965.6 L654.0 964.7 L662.0 964.2 L670.0 964.1 L678.0 964.4 L686.0 965.0 L694.0 966.1 L702.0 967.5 L710.0 969.2 L718.0 971.2 L726.0 973.5 L734.0 975.9 L742.0 978.5 L750.0 981.1 L758.0 983.8 L766.0 986.5 L774.0 989.0 L782.0 991.4 L790.0 993.5 L798.0 995.4 L806.0 997.1 L814.0 998.3 L822.0 999.3 L830.0 999.8 L838.0 999.9 L846.0 999.7 L854.0 999.0 L862.0 998.0 L870.0 996.6 L878.0 994.9 L886.0 992.9 L894.0 990.6 L902.0 988.2 L910.0 985.6 L918.0 983.0 L926.0 980.3 L934.0 977.7 L942.0 975.1 L950.0 972.7 L958.0 970.6 L966.0 968.6 L974.0 967.0 L982.0 965.7 L990.0 964.8 L998.0 964.2 L1006.0 964.1" fill="none" stroke="#151217" stroke-width="2.4" stroke-linejoin="round" stroke-linecap="round" stroke-dasharray="16 12" opacity=".75"/><circle cx="500.0" cy="500.0" r="158.0" fill="#0B0A0D" /><g transform="translate(500 500) scale(0.8)"><g transform="translate(-4 4)"><path d="M-128.0 46.0 L-127.0 45.8 L-126.0 45.2 L-125.0 44.4 L-124.0 43.4 L-123.0 42.2 L-122.0 40.8 L-121.0 39.3 L-120.0 37.7 L-119.0 36.0 L-118.0 34.3 L-117.0 32.6 L-116.0 30.9 L-115.0 29.3 L-114.0 27.8 L-113.0 26.4 L-112.0 25.2 L-111.0 24.1 L-110.0 23.3 L-109.0 22.8 L-108.0 22.5 L-107.0 22.4 L-106.0 22.7 L-105.0 23.3 L-104.0 24.1 L-103.0 25.3 L-102.0 26.8 L-101.0 28.6 L-100.0 30.6 L-99.0 32.9 L-98.0 35.5 L-97.0 38.3 L-96.0 41.2 L-95.0 44.4 L-94.0 47.7 L-93.0 51.0 L-92.0 54.5 L-91.0 57.9 L-90.0 61.4 L-89.0 64.8 L-88.0 68.1 L-87.0 71.3 L-86.0 74.3 L-85.0 77.1 L-84.0 79.6 L-83.0 81.9 L-82.0 83.9 L-81.0 85.5 L-80.0 86.9 L-79.0 87.8 L-78.0 88.4 L-77.0 88.5 L-76.0 88.3 L-75.0 87.7 L-74.0 86.6 L-73.0 85.2 L-72.0 83.4 L-71.0 81.2 L-70.0 78.7 L-69.0 75.9 L-68.0 72.8 L-67.0 69.5 L-66.0 65.9 L-65.0 62.1 L-64.0 58.2 L-63.0 54.2 L-62.0 50.1 L-61.0 46.0 L-60.0 41.9 L-59.0 37.9 L-58.0 34.0 L-57.0 30.2 L-56.0 26.6 L-55.0 23.2 L-54.0 20.1 L-53.0 17.3 L-52.0 14.8 L-51.0 12.6 L-50.0 10.7 L-49.0 9.2 L-48.0 8.1 L-47.0 7.3 L-46.0 7.0 L-45.0 7.0 L-44.0 7.4 L-43.0 8.1 L-42.0 9.2 L-41.0 10.7 L-40.0 12.4 L-39.0 14.4 L-38.0 16.6 L-37.0 19.0 L-36.0 21.6 L-35.0 24.4 L-34.0 27.3 L-33.0 30.2 L-32.0 33.2 L-31.0 36.2 L-30.0 39.1 L-29.0 41.9 L-28.0 44.7 L-27.0 47.3 L-26.0 49.7 L-25.0 52.0 L-24.0 54.0 L-23.0 55.8 L-22.0 57.3 L-21.0 58.6 L-20.0 59.6 L-19.0 60.3 L-18.0 60.7 L-17.0 60.9 L-16.0 60.8 L-15.0 60.5 L-14.0 59.9 L-13.0 59.2 L-12.0 58.2 L-11.0 57.1 L-10.0 55.8 L-9.0 54.4 L-8.0 52.9 L-7.0 51.4 L-6.0 49.8 L-5.0 48.1 L-4.0 46.2 L-3.0 46.0 L-2.0 46.0 L-1.0 46.0 L0.0 46.0 L1.0 46.0 L2.0 46.0 L3.0 46.0 L4.0 46.0 L5.0 46.0 L6.0 46.0 L6.0 46.0" fill="none" stroke="#FFC7EC" stroke-width="13" stroke-linecap="round" stroke-linejoin="round"/><path d="M36 46 L128 46" stroke="#FFC7EC" stroke-width="13" stroke-linecap="round" stroke-dasharray="0.1 25"/><path d="M6.0 46.0 L50.4 25.8 L124.9 -63.1 L92.8 -90.1 L18.2 -1.2 Z" fill="#0B0A0D" stroke="#FFC7EC" stroke-width="13" stroke-linejoin="round"/><path d="M50.4 25.8 L18.2 -1.2" stroke="#FFC7EC" stroke-width="13" stroke-linecap="round"/><path d="M105.6 -40.1 L73.5 -67.1" stroke="#FFC7EC" stroke-width="13" stroke-linecap="round"/><path d="M6.0 46.0 L21.0 39.0 L10.3 30.0 Z" fill="#FFC7EC" stroke="#FFC7EC" stroke-width="5" stroke-linejoin="round"/></g></g><rect x="60.0" y="880.0" width="152.2" height="60.0" rx="30.0" fill="#0B0A0D" /><path d="M91.60000000000001 902.24Q91.76 901.84 92.2 901.84Q92.64 901.84 92.64 901.92Q92.64 902.12 94.12 906.0Q96.08 911.16 97.04 913.76Q98.4 917.48 98.4 917.8Q98.4 918.08 97.0 918.12H96.44Q95.64 918.12 95.48 917.96Q95.36 917.84 94.5 915.36Q93.64 912.88 93.60000000000001 912.84Q93.44 912.56 91.76 912.56Q89.68 912.56 89.68 912.0Q89.68 911.84 89.72 911.76Q89.8 911.52 91.04 911.52H92.04L94.28 911.6L94.80000000000001 912.88Q94.96000000000001 913.28 95.30000000000001 914.28Q95.64 915.28 95.76 915.6Q96.28 917.04 96.64 917.08Q97.0 917.16 97.0 916.96Q97.0 916.84 96.32 914.96Q95.64 913.08 95.36 912.4399999999999L94.56 910.3199999999999Q93.76 908.1999999999999 92.96000000000001 906.12L92.16 904.0Q92.12 904.0 90.82000000000001 907.5Q89.52000000000001 911.0 88.14000000000001 914.56Q86.76 918.12 86.60000000000001 918.24Q86.32000000000001 918.4399999999999 86.04 918.16Q86.0 918.12 86.0 918.0Q86.0 917.1999999999999 91.60000000000001 902.24ZM102.76 906.84Q103.0 906.68 103.96000000000001 906.68Q104.72 906.68 105.0 906.8399999999999Q105.28 907.0 105.36 907.4399999999999Q105.4 907.56 105.42 907.5999999999999Q105.44 907.64 105.53999999999999 907.5999999999999Q105.64 907.56 105.84 907.4Q105.88 907.36 105.92 907.3399999999999Q105.96000000000001 907.3199999999999 106.0 907.28Q106.64 906.84 107.03999999999999 906.84Q107.44 906.84 107.44 907.24Q107.44 907.52 107.06 907.88Q106.68 908.24 106.08000000000001 908.6600000000001Q105.48 909.08 105.4 909.12Q104.96000000000001 909.4399999999999 104.72 909.4399999999999Q104.28 909.4399999999999 104.28 908.52Q104.28 907.72 103.92 907.72Q103.8 907.72 103.74000000000001 907.76Q103.68 907.8 103.64000000000001 908.0799999999999Q103.60000000000001 908.36 103.60000000000001 908.86Q103.60000000000001 909.36 103.60000000000001 910.36V912.4399999999999V914.52Q103.60000000000001 915.52 103.60000000000001 916.02Q103.60000000000001 916.52 103.64000000000001 916.8Q103.68 917.08 103.74000000000001 917.12Q103.8 917.16 103.92 917.16Q104.04 917.16 104.1 917.0999999999999Q104.16 917.04 104.22 916.68Q104.28 916.3199999999999 104.28 915.72Q104.28 915.12 104.28 913.88V910.6L106.60000000000001 908.84Q109.32000000000001 906.8 109.68 906.8Q110.04 906.8 110.04 907.84Q110.04 908.0 110.02000000000001 908.36Q110.0 908.72 110.0 908.96L109.96000000000001 910.96L108.68 911.0H107.96000000000001Q107.36 911.0 107.32000000000001 910.8Q107.28 910.72 107.28 910.64Q107.28 910.0 108.32000000000001 910.0H109.0V908.4L108.32000000000001 908.92Q107.96000000000001 909.1999999999999 106.52 910.28L105.36 911.12L105.28 914.64L105.24000000000001 918.12H102.64L102.56 912.56V910.6Q102.56 906.96 102.76 906.84ZM116.0 906.1999999999999 115.96 902.6H115.08V911.72L116.12 910.84Q116.8 910.24 117.66 909.4Q118.52 908.56 119.06 907.9399999999999Q119.6 907.3199999999999 119.52 907.3199999999999Q119.36 907.3199999999999 118.08 908.6Q116.84 909.92 116.48 909.92Q116.16 909.92 116.1 909.2Q116.03999999999999 908.48 116.0 906.1999999999999ZM114.12 901.76Q114.16 901.6 114.96 901.6H115.56L116.92 901.64L117.0 904.84L117.03999999999999 908.04L118.96 906.24L120.12 906.28Q120.96 906.3199999999999 121.16 906.4Q121.36 906.48 121.36 906.8Q121.36 907.24 118.92 909.68L116.44 912.1999999999999L118.36 914.24Q120.52 916.48 120.75999999999999 916.72Q121.2 917.16 121.2 917.6Q121.2 917.92 120.92 918.04H120.88Q120.44 918.04 117.84 915.3199999999999L115.08 912.48V918.16L114.64 918.12L114.12 918.04L114.08 910.0Q114.08 901.88 114.12 901.76ZM129.4 909.24Q130.2 908.84 130.88 908.84Q131.6 908.84 131.6 909.24Q131.6 909.56 130.64 909.88Q129.6 910.1999999999999 128.98 910.98Q128.35999999999999 911.76 128.35999999999999 912.64Q128.35999999999999 913.72 129.24 914.6Q129.88 915.24 130.48 915.4Q131.28 915.56 131.45999999999998 915.64Q131.64 915.72 131.64 915.92Q131.64 916.52 130.95999999999998 916.52Q130.28 916.52 129.36 916.02Q128.44 915.52 127.96 914.8Q127.56 914.24 127.47999999999999 913.9200000000001Q127.39999999999999 913.6 127.39999999999999 912.6800000000001Q127.39999999999999 911.76 127.5 911.4200000000001Q127.6 911.08 128.0 910.48Q128.6 909.68 129.4 909.24ZM133.32 908.4399999999999Q132.44 908.0 131.07999999999998 908.0Q130.12 908.0 129.68 908.1999999999999Q128.32 908.72 127.44 909.96Q126.56 911.1999999999999 126.56 912.64Q126.56 913.12 126.67999999999999 913.6Q127.28 916.24 130.0 917.16Q130.52 917.36 131.24 917.36Q133.04 917.36 134.5 915.9200000000001Q135.96 914.48 135.96 912.64Q135.96 912.08 135.88 911.8Q135.4 909.56 133.32 908.4399999999999ZM129.56 907.12Q130.12 906.96 131.12 906.96H131.52Q133.6 907.04 135.01999999999998 908.28Q136.44 909.52 136.88 911.64Q137.0 912.1999999999999 137.0 912.68Q137.0 914.28 136.1 915.72Q135.2 917.16 133.72 917.84Q132.6 918.4 131.24 918.4Q129.64 918.4 128.26 917.56Q126.88 916.72 126.12 915.1999999999999Q125.56 914.16 125.56 912.4399999999999Q125.56 911.48 125.8 910.84Q126.8 908.04 129.56 907.12ZM141.07999999999998 907.28Q141.12 907.0 141.38 906.96Q141.64 906.92 142.88 906.92H144.56Q145.32 907.64 146.76 909.08Q147.88 908.0 148.95999999999998 906.88L150.72 906.96L152.44 907.0V918.16H151.56Q151.51999999999998 916.4399999999999 151.51999999999998 913.04Q151.51999999999998 909.64 151.48 907.96H149.48L148.28 909.1999999999999Q147.07999999999998 910.4 146.76 910.4Q146.48 910.4 145.28 909.1999999999999L144.07999999999998 907.96H142.04V917.4H142.92L142.95999999999998 914.72Q143.0 912.08 143.35999999999999 912.08Q143.48 912.08 143.54 912.14Q143.6 912.1999999999999 143.66 912.52Q143.72 912.84 143.74 913.4000000000001Q143.76 913.96 143.76 915.16L143.79999999999998 918.28L142.48 918.24L141.07999999999998 918.16L141.04 912.92Q141.04 907.52 141.07999999999998 907.28ZM156.52 906.4399999999999Q156.6 906.24 157.44 906.24H157.88L159.16 906.28V912.24H158.28L158.24 909.72Q158.2 908.0 158.14 907.62Q158.07999999999998 907.24 157.84 907.24Q157.48 907.24 157.48 912.12V917.04L158.32 917.08Q158.72 917.12 158.88 917.14Q159.04 917.16 159.1 917.26Q159.16 917.36 159.16 917.56Q159.16 917.88 158.98000000000002 917.94Q158.8 918.0 157.84 918.0H156.52L156.48 912.3199999999999Q156.48 906.56 156.52 906.4399999999999ZM158.16 903.88Q158.07999999999998 903.6 157.85999999999999 903.5799999999999Q157.64 903.56 157.56 903.84Q157.32 904.48 158.16 904.48Q158.44 904.4 158.44 904.3199999999999Q158.35999999999999 904.28 158.16 903.88ZM156.88 902.96Q157.28 902.56 157.84 902.56Q158.4 902.56 158.8 902.96Q159.24 903.4 159.24 903.96Q159.24 904.3199999999999 159.04 904.36Q158.84 904.4399999999999 159.04 904.6Q159.28 904.76 159.2 905.08Q159.16 905.4399999999999 158.2 905.48H157.8Q157.2 905.48 156.88 905.16Q156.44 904.72 156.44 904.04Q156.44 903.4 156.88 902.96ZM165.16 906.1999999999999 165.12 902.6H164.24V911.72L165.28 910.84Q165.96 910.24 166.82 909.4Q167.68 908.56 168.22000000000003 907.9399999999999Q168.76000000000002 907.3199999999999 168.68 907.3199999999999Q168.52 907.3199999999999 167.24 908.6Q166.0 909.92 165.64000000000001 909.92Q165.32000000000002 909.92 165.26000000000002 909.2Q165.20000000000002 908.48 165.16 906.1999999999999ZM163.28 901.76Q163.32000000000002 901.6 164.12 901.6H164.72L166.08 901.64L166.16 904.84L166.20000000000002 908.04L168.12 906.24L169.28 906.28Q170.12 906.3199999999999 170.32 906.4Q170.52 906.48 170.52 906.8Q170.52 907.24 168.08 909.68L165.60000000000002 912.1999999999999L167.52 914.24Q169.68 916.48 169.92000000000002 916.72Q170.36 917.16 170.36 917.6Q170.36 917.92 170.08 918.04H170.04000000000002Q169.60000000000002 918.04 167.0 915.3199999999999L164.24 912.48V918.16L163.8 918.12L163.28 918.04L163.24 910.0Q163.24 901.88 163.28 901.76ZM178.56000000000003 909.24Q179.36 908.84 180.04000000000002 908.84Q180.76000000000002 908.84 180.76000000000002 909.24Q180.76000000000002 909.56 179.8 909.88Q178.76000000000002 910.1999999999999 178.14000000000001 910.98Q177.52 911.76 177.52 912.64Q177.52 913.72 178.40000000000003 914.6Q179.04000000000002 915.24 179.64000000000001 915.4Q180.44000000000003 915.56 180.62 915.64Q180.8 915.72 180.8 915.92Q180.8 916.52 180.12 916.52Q179.44000000000003 916.52 178.52000000000004 916.02Q177.60000000000002 915.52 177.12000000000003 914.8Q176.72000000000003 914.24 176.64000000000004 913.9200000000001Q176.56000000000003 913.6 176.56000000000003 912.6800000000001Q176.56000000000003 911.76 176.66000000000003 911.4200000000001Q176.76000000000002 911.08 177.16000000000003 910.48Q177.76000000000002 909.68 178.56000000000003 909.24ZM182.48000000000002 908.4399999999999Q181.60000000000002 908.0 180.24 908.0Q179.28000000000003 908.0 178.84000000000003 908.1999999999999Q177.48000000000002 908.72 176.60000000000002 909.96Q175.72000000000003 911.1999999999999 175.72000000000003 912.64Q175.72000000000003 913.12 175.84000000000003 913.6Q176.44000000000003 916.24 179.16000000000003 917.16Q179.68000000000004 917.36 180.40000000000003 917.36Q182.20000000000002 917.36 183.66000000000003 915.9200000000001Q185.12000000000003 914.48 185.12000000000003 912.64Q185.12000000000003 912.08 185.04000000000002 911.8Q184.56000000000003 909.56 182.48000000000002 908.4399999999999ZM178.72000000000003 907.12Q179.28000000000003 906.96 180.28000000000003 906.96H180.68000000000004Q182.76000000000002 907.04 184.18 908.28Q185.60000000000002 909.52 186.04000000000002 911.64Q186.16000000000003 912.1999999999999 186.16000000000003 912.68Q186.16000000000003 914.28 185.26000000000002 915.72Q184.36 917.16 182.88000000000002 917.84Q181.76000000000002 918.4 180.40000000000003 918.4Q178.8 918.4 177.42000000000002 917.56Q176.04000000000002 916.72 175.28000000000003 915.1999999999999Q174.72000000000003 914.16 174.72000000000003 912.4399999999999Q174.72000000000003 911.48 174.96000000000004 910.84Q175.96000000000004 908.04 178.72000000000003 907.12Z" fill="#FFC7EC"/><rect x="734.6" y="880.0" width="205.4" height="60.0" rx="30.0" fill="#0B0A0D" /><path d="M766.807 912.831Q763.767 912.831 762.1615 911.2445Q760.556 909.658 760.556 906.656V902.875H764.489V906.333Q764.489 907.834 765.306 908.594Q766.123 909.354 767.7570000000001 909.354Q768.707 909.354 769.752 909.1355000000001Q770.797 908.917 771.842 908.499L772.07 911.653Q770.9300000000001 912.223 769.5810000000001 912.527Q768.2320000000001 912.831 766.807 912.831ZM771.3290000000001 917.125V902.875H775.2810000000001V917.125ZM792.7610000000001 908.575V911.425H782.33V908.575ZM785.009 910.0 784.0780000000001 915.719 782.4820000000001 913.933H793.388V917.125H780.1450000000001L781.2280000000001 910.0L780.1450000000001 902.875H793.2930000000001V906.067H782.4820000000001L784.0780000000001 904.281ZM806.327 902.875Q808.113 902.875 809.4145000000001 903.483Q810.716 904.091 811.4000000000001 905.2025Q812.0840000000001 906.314 812.0840000000001 907.796Q812.0840000000001 909.259 811.4000000000001 910.3705Q810.716 911.482 809.4145000000001 912.0899999999999Q808.113 912.698 806.327 912.698H800.152V909.544H806.08Q807.0300000000001 909.544 807.5620000000001 909.0785000000001Q808.094 908.613 808.094 907.796Q808.094 906.96 807.5620000000001 906.4945Q807.0300000000001 906.029 806.08 906.029H800.494L802.2610000000001 904.205V917.125H798.3280000000001V902.875ZM816.4540000000001 902.875H820.3870000000001V917.125H816.4540000000001ZM827.664 902.875H831.616V917.125H827.664ZM818.658 908.138H829.298V911.634H818.658ZM844.764 917.429Q842.237 917.429 840.3275 916.498Q838.418 915.567 837.3634999999999 913.895Q836.309 912.223 836.309 910.0Q836.309 907.777 837.3634999999999 906.105Q838.418 904.433 840.3275 903.502Q842.237 902.571 844.764 902.571Q847.31 902.571 849.21 903.502Q851.11 904.433 852.174 906.105Q853.2379999999999 907.777 853.2379999999999 910.0Q853.2379999999999 912.223 852.174 913.895Q851.11 915.567 849.21 916.498Q847.31 917.429 844.764 917.429ZM844.764 913.914Q846.151 913.914 847.1579999999999 913.4390000000001Q848.165 912.964 848.7065 912.09Q849.248 911.216 849.248 910.0Q849.248 908.784 848.7065 907.91Q848.165 907.036 847.1579999999999 906.5609999999999Q846.151 906.086 844.764 906.086Q843.396 906.086 842.3889999999999 906.5609999999999Q841.382 907.036 840.8309999999999 907.91Q840.28 908.784 840.28 910.0Q840.28 911.216 840.8309999999999 912.09Q841.382 912.964 842.3889999999999 913.4390000000001Q843.396 913.914 844.764 913.914ZM867.583 910.152 867.906 909.411Q869.559 909.449 870.6324999999999 909.9145Q871.706 910.38 872.238 911.2065Q872.77 912.033 872.77 913.116Q872.77 914.275 872.238 915.1775Q871.706 916.08 870.6514999999999 916.6025Q869.597 917.125 868.02 917.125H857.494L858.596 909.81L857.494 902.875H867.64Q869.616 902.875 870.7180000000001 903.7964999999999Q871.82 904.718 871.82 906.352Q871.82 907.245 871.402 908.062Q870.984 908.879 870.0625 909.4395Q869.141 910.0 867.583 910.152ZM861.389 916.213 859.869 914.37H866.956Q867.811 914.37 868.2860000000001 913.952Q868.761 913.534 868.761 912.793Q868.761 912.052 868.248 911.6055Q867.735 911.159 866.728 911.159H860.876V908.461H866.196Q866.88 908.461 867.3455 908.0525Q867.811 907.644 867.811 906.941Q867.811 906.371 867.412 906.0005Q867.013 905.63 866.272 905.63H859.888L861.389 903.787L862.358 909.81ZM877.368 917.125V902.875H881.244V915.054L880.1610000000001 914.807L888.236 902.875H893.385V917.125H889.49V904.718L890.592 904.965L882.365 917.125ZM898.705 917.125V902.875H902.619V913.99L901.574 913.173L909.649 902.875H913.81L902.258 917.125ZM905.507 910.323 908.395 907.929 914.0 917.125H909.535Z" fill="#FFC7EC"/></svg>